<svg viewBox="0 0 1280 80" xmlns="http://www.w3.org/2000/svg"><g fill="#fff"><path d="m131.88 17.21a.55.55 0 0 0 -.69.26.71.71 0 0 0 -.13.31 173.31 173.31 0 0 0 -3.13 26c0 .63-.11 2.42-.18 3a3.56 3.56 0 0 1 -.06.44 10.8 10.8 0 0 1 -.71-2.39q-.36-1.32-.69-2.64-.65-2.59-1.18-5.2c-1.18-5.72-2-11.57-2.74-17.37a1.19 1.19 0 0 0 -.67-1.09c-.46-.19-1-.17-1.22.38a8.43 8.43 0 0 0 -.24 2.7c0 1.48.11 2.95.19 4.44a42.69 42.69 0 0 1 .08 4.93c-.16 3.25-.35 6.49-.64 9.73-.09 1-.2 2-.31 3.07-.18 1.69-.5 3.35-.69 5l-.12.91-.56 2.38-.62 2.93-.21 1-.09.41c0 .16 0 .41-.14.53a.33.33 0 0 1 -.3.09 15.14 15.14 0 0 1 -.7-2.06c-.1-.4-.19-1.5-.85-1.37-.31.06-.41.43-.37.7 0 .45.16.9.24 1.35.17.9.35 1.81.53 2.72q.1.48.18 1a6.22 6.22 0 0 0 .2 1.13 2.39 2.39 0 0 0 .41.83 1.18 1.18 0 0 0 .85.25 1.08 1.08 0 0 0 .78-.38 1.72 1.72 0 0 0 .2-.38 14.37 14.37 0 0 0 .86-3.21q.32-1.71.6-3.42.55-3.42.93-6.87c.06-.54.11-1.08.16-1.63.39-4 .72-8.12.73-12.16h.11c.58 3.5 1 7 1.66 10.52s1.76 6.85 2.78 10.24c.41 1.37 1 4.12 2.6 4.53a1.34 1.34 0 0 0 1.34-.38 1.64 1.64 0 0 0 -.07-1.54 3 3 0 0 1 -.36-1.46 20.11 20.11 0 0 0 -.13-3.46c0-3.27-.1-6.54 0-9.81a150.75 150.75 0 0 1 1.43-15.59l.18-1.41 1-5.09.34-1.59c.09-.49-.15-1.2-.58-1.28z"/><path d="m174.57 46.34a.56.56 0 0 0 -.59.23c-.37.51-.33 1.45-.51 2-.07.24-.16 1-.52.82s-.47-1.69-.52-2a25.58 25.58 0 0 1 -.18-4.95c.06-1.42.19-2.84.26-4.27a16.84 16.84 0 0 0 .15-2.46 1.88 1.88 0 0 0 -.29-1.09c-.32-.32-.74.1-1 .45a3.87 3.87 0 0 0 -.35 1q-.75 3.3-1.67 6.55c-.31 1.1-.63 2.2-1 3.29-.08.25-.2 1.16-.51 1.2s-.29-.64-.29-.9c-.11-2.54-.18-5.07-.21-7.62a24.18 24.18 0 0 0 -.3-4.34.92.92 0 0 0 -.28-.6c-.37-.27-.55.21-.68.46a9 9 0 0 0 -.68 2.26 16.79 16.79 0 0 1 0 3.62l-.56 2.27c-.11.22-.68 2.6-.68 2.6l-.11.45-.25 1.69c-.1.34-.21.68-.34 1l-.36.22a18.54 18.54 0 0 1 -.53-5 40.29 40.29 0 0 1 .23-5.6c.07-.6.15-1.19.25-1.78a1.43 1.43 0 0 0 0-.74.53.53 0 0 0 -.72-.31c-.47.16-.35.4-.85.1a1 1 0 0 0 -.88.06c-2 .9-2.88 3.22-3.51 5.15a28.19 28.19 0 0 0 -1.25 6.88c0 .57-.08 1.13-.16 1.7-.06.34-.17 1.58-.52 1.77s-.71-2.21-.76-2.58c-.12-1-.16-1.95-.2-2.93q-.17-4.08-.16-8.17c0-.41.37-2.39 0-2.51s-.76-.08-.93.38a3.51 3.51 0 0 0 -.12.79 9.05 9.05 0 0 1 -.51 1.81 32.36 32.36 0 0 0 -.91 3.48c-.2 1-.44 2-.67 3a8.27 8.27 0 0 1 -.72 2.76 2.93 2.93 0 0 1 -.26-1.58 70.16 70.16 0 0 1 .32-9.28 1.52 1.52 0 0 0 0-.67c-.11-.34-.44-.5-.69-.21a1.25 1.25 0 0 0 -.2.42l-.75 2.43c-.24.75-.47 1.5-.69 2.26-.14.46-.25.93-.37 1.39a4.52 4.52 0 0 1 -.39 1.34 2.4 2.4 0 0 1 -.11-.84c-.09-1.83.27-3.68 0-5.49-.09-.53-.23-1-.28-1.59 0-.37 0-.75-.1-1.13a.4.4 0 0 0 -.07-.18.33.33 0 0 0 -.14-.1 4 4 0 0 0 -.64-.27c-.09 0-.6.89-.68 1.1l-.34 1-.79 2.24-.21.58-.79 3.73a13 13 0 0 0 -.42 1.74c-.14.78-.32 1.55-.52 2.32l-.14.5c-.12.43-.24.87-.38 1.31-.21.67-.46 1.34-.71 2-.06.17-.2.76-.43.73a3 3 0 0 1 -.22-.85 32.16 32.16 0 0 1 .29-3.92c.14-1.39.25-2.78.32-4.17 0-.33 0-.67.09-1s.12-.6.18-.91a12.66 12.66 0 0 0 .19-3.31c0-.37.06-1.09-.25-1.36s-.71 0-.94.21a4.47 4.47 0 0 0 -1 1.59 9.18 9.18 0 0 0 -.4 2c-.21 1.86-.44 3.71-.67 5.56a20.9 20.9 0 0 1 -.43 2.49 22.58 22.58 0 0 1 -1.83 4.34l-.8 1.61a.56.56 0 0 1 -.3.32 4.93 4.93 0 0 1 -1.22-2.14 3.2 3.2 0 0 1 0-1.84 8.94 8.94 0 0 1 .91-1.66 18.08 18.08 0 0 0 1.68-4.69 19 19 0 0 0 .78-4.35 5 5 0 0 0 -.66-2.88 1.71 1.71 0 0 0 -2.34-.12 4.19 4.19 0 0 0 -1.45 1.9 20.43 20.43 0 0 0 -1.39 5.69 26.21 26.21 0 0 0 -.32 5 13.5 13.5 0 0 0 .42 2.53c.21.82-.16 1.1-.68 1.69a5.75 5.75 0 0 0 -.63.84 5.84 5.84 0 0 1 -.59 1 2.11 2.11 0 0 0 -.3.37.38.38 0 0 0 0 .44l.52.1c.55-.68 1.05-1.41 1.67-2 .18-.18.64-.74.91-.67s.78 1.09 1 1.32a2 2 0 0 0 .88.76 1.57 1.57 0 0 0 1.53-.37 5 5 0 0 0 .95-1.35 11.09 11.09 0 0 1 1.4-2.55.93.93 0 0 1 .22.47 3.84 3.84 0 0 1 0 .48 4.59 4.59 0 0 0 .08 1.1c.08.36.12.72.19 1.08a1.27 1.27 0 0 0 1.18 1c.81 0 1.07-.83 1.37-1.44a19 19 0 0 0 1-2.46c.92-2.69 1.5-5.52 2.15-8.28l.39-1.62c.07-.3.14-1.13.39-1.25a3.38 3.38 0 0 1 .34 1.8c0 .12-.11 1.36-.11 1.36 0 .34-.12 1.81-.12 1.81l-.22 1.81v1.59a16.8 16.8 0 0 1 -.46 3.39c-.26 1-.41 2.14-.61 3.2a.5.5 0 0 0 0 .21.46.46 0 0 0 .31.36c.73.3 1.45-.45 1.78-1a6.75 6.75 0 0 0 .61-2.38 29.83 29.83 0 0 1 .61-3.13c.13-.53.27-1.06.41-1.59.1-.35.15-1.07.41-1.29.15 1.17.13 2.38.26 3.55s.31 2.42.51 3.63a2 2 0 0 0 .17.62 1.89 1.89 0 0 0 1.22.9c.81 0 .73-1.53.78-2.14a29.54 29.54 0 0 1 .47-3.63c.11-.6.24-1.19.39-1.78.09-.34.2-1.36.52-1.5a.2.2 0 0 0 0 .11s.11 1.13.11 1.36l.11.68v.13s.11 1 .23 1.93a16.26 16.26 0 0 0 .9 3.73s.46 1.13 1.13 1.25l.23-.23.22-.34.23-.34c0-.23.79-1.47 1-2.26-.08.28.38 1.17.49 1.45a3.93 3.93 0 0 0 1 1.49c.66.55 1.08.28 1.54-.34l.12-.11.45-.79.9-1.47.34.11.23 1.47.24.67c.22.33.34.45.67.45 1.1 0 1.44-3.06 1.63-3.78.25-1 .51-1.92.77-2.87.12-.44.48-2.61.87-2.66a1.1 1.1 0 0 1 0 .25c-.23 2.15-.23 5.44-.23 5.44a9.59 9.59 0 0 0 .75 3.61.86.86 0 0 0 .28.29.56.56 0 0 0 .52 0 1.23 1.23 0 0 0 .41-.34 6.19 6.19 0 0 0 .86-2.45c.28-1 .63-1.93.94-2.9.21-.65.4-1.32.55-2 .07-.36 0-1.53.41-1.62a8.51 8.51 0 0 1 0 2 15.59 15.59 0 0 0 .11 2.15c0 .11.34 2.61.34 2.61l.23 1.12.11.57c.5.58 1 1.32 1.7.48a6.26 6.26 0 0 0 1.06-2.09c.27-.8.53-1.6.76-2.41a8.21 8.21 0 0 0 .54-2.21.51.51 0 0 0 -.22-.45zm-41.43.55a2.19 2.19 0 0 1 -.14-.71c0-.45 0-.9 0-1.35a21.6 21.6 0 0 1 1.72-8.08c.13-.32.35-.68.7-.68a14.63 14.63 0 0 1 -.36 5.43 43.79 43.79 0 0 1 -1.69 5.2c-.1.3-.18.3-.23.19zm28.05-9.78-.34 1.58c0 .22-.57 4.75-.57 4.75v.68c0 .34.12 1.47.12 1.47v.11s.11 2 .22 3.06v.24a2 2 0 0 1 -.22.57l-.46.56-.23.23-.45.11a8.75 8.75 0 0 1 -.68-2.15l-.11-1.13s-.23-1.47-.23-1.69a22.65 22.65 0 0 1 .91-6.34l.23-.91.22-.68a2.8 2.8 0 0 1 1-1.58l.23-.11h.23l.33.45z"/><path d="m140.93 32.59a1.16 1.16 0 0 0 .45-.12 2.86 2.86 0 0 0 1.24-1.75 1.56 1.56 0 0 0 -.49-1.2c-.48-.48-1.36-1-1.86-.28a1.76 1.76 0 0 0 -.26.81 4.84 4.84 0 0 0 0 1.61 1.26 1.26 0 0 0 .4.79.8.8 0 0 0 .52.14z"/><path d="m233.75 46.84a.42.42 0 0 0 -.14-.09.47.47 0 0 0 -.2 0l-.21-.07c-.23-.11-.44-.15-.57-.22l-1.37-.46-.23-.11-.45-2.76a4.51 4.51 0 0 0 -.09-.53s-.25-2-.25-2.41v-.23l.12-2.26.11-.91.22-1.13a3.69 3.69 0 0 0 0-1 .82.82 0 0 0 -.33-.23c-.68 0-.88.58-1 1.16-.7 2.5-1.63 4.93-2.49 7.37-.43 1.21-.84 2.41-1.2 3.65-.19.62-.36 1.26-.51 1.89s0 1.22-.65 1.44a.82.82 0 0 1 -.22-.6 50.73 50.73 0 0 1 .61-14.14.35.35 0 0 0 -.15-.48.45.45 0 0 0 -.23 0 4 4 0 0 0 -1 0 1.23 1.23 0 0 0 -.85.54 1.87 1.87 0 0 0 -.19.62c-.49 3-.3 6.11-1 9.07a20.44 20.44 0 0 1 -1 2.95 9 9 0 0 1 -.89 1.75c-.52-.18-.42-2.24-.45-2.65a22.79 22.79 0 0 1 .1-4.13c.14-1.42.37-2.83.59-4.24.11-.7.22-1.41.32-2.12a7.61 7.61 0 0 0 .23-1.93 2.39 2.39 0 0 0 -1.42-.44 1.3 1.3 0 0 0 -.55.12 1.57 1.57 0 0 0 -.62 1.13c-.57 2.56-.67 5.15-1.48 7.65a24.08 24.08 0 0 1 -3.31 6.57c-.18.25-.46.52-.75.42a11.5 11.5 0 0 1 -1.3-5.92 18.94 18.94 0 0 1 1.85-7.83 1.8 1.8 0 0 1 .43-.65c1.21-1 .93 1.83.78 2.32-.23.72-.59 1.4-.86 2.11a1.66 1.66 0 0 0 -.15.62.61.61 0 0 0 1 .58 1.39 1.39 0 0 0 .52-.53 7.24 7.24 0 0 0 .83-3.84 2.62 2.62 0 0 0 -1.54-2.57 1.45 1.45 0 0 0 -.58-.14 1.58 1.58 0 0 0 -1 .55 6.67 6.67 0 0 0 -1.24 1.79 20 20 0 0 0 -1.75 5.21 33.77 33.77 0 0 1 -.62 3.48 11.75 11.75 0 0 1 -1.42 2.86c-.34.49-.74 1.37-1.31 1.63s-.51-1.38-.48-1.82a58.84 58.84 0 0 1 .82-6.63 22.22 22.22 0 0 1 .66-2.82 12.7 12.7 0 0 1 .71-1.8c.17-.35.71-1 .23-1.34a6.77 6.77 0 0 0 -1-.75c-.61-.29-1.18.49-1.59.92a2.6 2.6 0 0 1 -1.46.95 2.37 2.37 0 0 1 -.34-1.15c0-.29 0-.58 0-.86v-.2s0 0 0-.06a1.18 1.18 0 0 0 0-.48.5.5 0 0 0 -.44-.27c-.31 0-.62-.16-.81.43a.18.18 0 0 0 0 .16 9.72 9.72 0 0 0 -.28 2c-.2 1.42-.42 2.82-.64 4.23-.46 2.78-1 5.56-1.51 8.32-.05.24-.08.93-.46.78s-.49-1.49-.55-1.82a27.39 27.39 0 0 1 .05-9.93c.1-.53.25-1.05.35-1.57a2.34 2.34 0 0 0 0-.26.19.19 0 0 0 .09-.14.79.79 0 0 0 0-.43.52.52 0 0 0 -.32-.48c-.3-.11-.39-.18-.94.34a.09.09 0 0 0 0 .1c-.59-.34-1.16-.89-1.79-.75a1.32 1.32 0 0 0 -.63.43 10 10 0 0 0 -2.12 3.83c-.48 1.51-.62 3.1-1 4.63a16.46 16.46 0 0 0 -.36 4.21c0 1 .48 7.85 2.86 5.87a3.87 3.87 0 0 0 .62-.72c.23-.33 1-1.74 1.38-1.66s.46.83.59 1.07a10.59 10.59 0 0 0 .92 1.5 1 1 0 0 0 .71.5c1 0 1.5-1.71 1.72-2.43a19 19 0 0 0 .53-3.09q.54-4.44 1.29-8.86a1.05 1.05 0 0 0 1.24.53 4.2 4.2 0 0 0 1.21-.7c.27.71-.55 2-.73 2.76-.26 1-.49 2-.68 3.1a18.44 18.44 0 0 0 -.61 5.72 5.82 5.82 0 0 0 1.36 3.1 3.7 3.7 0 0 0 2.19-2.05c.4-.7.78-1.42 1.12-2.16.19-.41.52-1.75.9-1.91a16.32 16.32 0 0 0 .63 3.8 4.24 4.24 0 0 0 .99 2.16 1.11 1.11 0 0 0 .83.32 1.49 1.49 0 0 0 .79-.48c.33-.31.65-.61.95-.95a11.66 11.66 0 0 0 2-3.7 19.66 19.66 0 0 1 1.51-3.91 6 6 0 0 1 .06 2v2.19a7.93 7.93 0 0 0 .32 2.75 2 2 0 0 0 .84 1.1c1 .55 1.64-.69 2-1.45l1.27-3c.1-.24.37-1.22.66-.95s.08.78.09 1a15.4 15.4 0 0 0 .37 3 2.39 2.39 0 0 0 1 1.72 1 1 0 0 0 .53.12 1.12 1.12 0 0 0 .69-.56 32.31 32.31 0 0 0 1.77-3.34c.18.17.22.68.32.94a5.49 5.49 0 0 0 1.88 2.53 1.89 1.89 0 0 0 2 .39 3 3 0 0 0 1.07-1.52 7.73 7.73 0 0 0 .26-3.76c0-.42-.42-1.37 0-1.45s1.24.41 1.7.63a.43.43 0 0 0 .64-.35.49.49 0 0 0 -.12-.43zm-36.55-8.15-.2 1.69-.22 1.7v1.13l-.12 2.15-.11.67v1.7a3.29 3.29 0 0 1 -.56 2 1.43 1.43 0 0 1 -.91.9 7.5 7.5 0 0 0 -.34-1v-.63l-.11-.9-.11-.57v-3.08c0-.11.11-.79.11-.79v-.9l.11-1.81.11-.68.34-1.81.12-.46.33-.79c.46-1.35.57-1.58 1.25-1.58l.11.23.34.67a1.42 1.42 0 0 1 .12.57c-.03.12-.26 1.13-.26 1.59zm31.57 12.31-.11.11h-.11c-.72-.05-1.36-1.58-1.36-1.81a2 2 0 0 1 .34-1.24l.09-.16.48-.41.34-.12h.11l.11.12s.28 1 .28 1.12a8.81 8.81 0 0 1 .11 1.36 1.49 1.49 0 0 1 -.28 1zm.23-9.2v1.2.6l-.05 1a1.81 1.81 0 0 1 -.09 1c-.25.63-.43.55-.75.61-.16 0-.59.16-.71.16l.21-1.12.1-.53.26-.77.45-1.43.23-.79.09-.32.37-1z"/><path d="m192.53 47.94h-.12c-.45.31-.5 1.57-.64 2.06a2 2 0 0 1 -.17.64c-.46.61-.59-.38-.64-.8a143 143 0 0 1 -1.05-26.16c.06-.84.12-1.68.19-2.52a1.6 1.6 0 0 0 -.12-1c-.35-.61-1-.26-1.1.28-1.38 6.86-2.9 13.7-4.19 20.57-.54-.29-.52-2.88-.6-3.52l-.54-4.12-.63-4.8c-.36-2.8-.73-5.6-.89-8.41 0-.65.26-2.62-.59-2.86-.64-.17-1.32.7-1.45 1.23a5.07 5.07 0 0 0 0 1.94 50.78 50.78 0 0 1 -.45 13c-.56 4.29-1.25 8.56-2 12.82-.33 1.87-.67 3.73-1 5.6a27.07 27.07 0 0 1 -1.15 5.39.67.67 0 0 1 -.55.45c-.31 0-.52-.31-.64-.59a9.13 9.13 0 0 0 -.47-1.54c-.48-.73-1.05 0-1.13.69a3.68 3.68 0 0 0 .19 1.35c.39 1.45.81 2.89 1.27 4.33a1.54 1.54 0 0 0 .39.72 1.1 1.1 0 0 0 1.29 0c1.36-1 1.48-3.7 1.75-5.17q.6-3.24 1.12-6.5 1-6.53 1.77-13.08c.1-1 .21-2 .32-3 .06-.68 0-1.55.16-2.3.09-.55.27-.25.33.19a16.76 16.76 0 0 1 .07 1.74c.09 2.22.21 4.44.34 6.66q.41 6.66 1.07 13.31c.06.63 0 1.16.78 1.16s.64-.84.7-1.33c.12-1 .3-1.93.45-2.9.29-1.93.6-3.86.9-5.79l1-6 .51-3c.1-.6.12-1.19.29-2.09.12-.61.34-.11.35.35s0 1.15 0 1.72c0 3.7 0 7.4.36 11.1.1 1.13.23 2.25.35 3.38.1.91.62 6.14 2.1 5.59a1.35 1.35 0 0 0 .66-.81 19.94 19.94 0 0 0 1.38-4.14 13.72 13.72 0 0 0 .25-2.21c-.01-.24.07-1.57-.22-1.63z"/><path d="m343.27 45.36a5.15 5.15 0 1 0 -5.27-5.15 5.05 5.05 0 0 0 5.31 5.15zm-76.79-.23h1.39v-7.42l5.67 7.42h1.39v-9.73h-1.39v7.42l-5.67-7.42h-1.39zm12.1 0h6.91v-1.41h-5.49v-2.72h4.64v-1.44h-4.64v-2.75h5.5v-1.41h-6.91v9.73zm12.75 0h1.39v-8.32h3.5v-1.41h-8.42v1.41h3.51v8.32zm14.51 0h1.52l1.24-2.75h4.85l1.24 2.75h1.51l-4.45-9.73h-1.5zm21.85 0h1.38v-4.13h4.1a2.8 2.8 0 1 0 0-5.59h-5.48zm23.61 0h1.38v-4.13h1.93c1.39 0 1.79.34 2.82 1.87l.88 1.34a10.37 10.37 0 0 0 .69 1h1.89a6.85 6.85 0 0 1 -1.4-1.72l-.38-.55c-1.11-1.64-1.2-1.85-1.85-2.25a2.4 2.4 0 0 0 1.93-2.48 2.59 2.59 0 0 0 -2.87-2.71h-5v9.73zm13.71 0h1.39v-8.32h3.5v-1.41h-8.42v1.41h3.52v8.32zm7.5 0h6.91v-1.41h-5.5v-2.72h4.64v-1.44h-4.64v-2.75h5.5v-1.41h-6.91zm10.37 0h1.39v-4.13h1.93c1.39 0 1.79.34 2.82 1.87l.88 1.34a10.37 10.37 0 0 0 .69 1h1.89a6.85 6.85 0 0 1 -1.4-1.72l-.38-.55c-1.11-1.64-1.2-1.85-1.85-2.25a2.4 2.4 0 0 0 1.93-2.48 2.59 2.59 0 0 0 -2.88-2.71h-5v9.73zm-39.61-1.13a3.79 3.79 0 1 1 3.87-3.79 3.67 3.67 0 0 1 -3.87 3.79zm-14.2-4.46v-2.75h4a1.39 1.39 0 1 1 0 2.77zm23.61 0v-2.75h3.57a1.39 1.39 0 1 1 0 2.77zm31.61 0v-2.75h3.57a1.39 1.39 0 1 1 0 2.77zm-75 1.41 1.71-3.87 1.82 3.92zm-11.29.05h5.86v-1.44h-5.86zm20.23 0h5.86v-1.44h-5.86z"/><path d="m533.81 54.58v-12.58a.22.22 0 0 1 .15-.26h.43a.22.22 0 0 1 .23.21v16.74a.25.25 0 0 1 -.19.29h-.82a.42.42 0 0 1 -.37-.26l-9.18-14.86c-.06 0-.19-.18-.26 0v14.83c0 .16 0 .29-.16.29h-.5c-.13 0-.15-.13-.15-.29v-16.43c0-.1-.16-.26-.16-.36s.18-.18.7-.18h1.38c.44 0 .83.21 1.43 1.14l7.26 11.74a.21.21 0 0 0 .13.13c.06 0 .08 0 .08-.13z"/><path d="m505.46 42.08v16.4c0 .32-.13.52-.41.52h-1.67a.46.46 0 0 1 -.44-.47v-13a.2.2 0 0 0 -.16-.23s0 0 0 0a.25.25 0 0 0 -.18.23l-4.79 12.85c-.05.13-.13.39-.26.39s-.21-.26-.26-.39l-5.31-13.68a.27.27 0 0 0 -.15-.13s-.08 0-.08.21v13.83c0 .29 0 .39-.21.39h-.39c-.21 0-.23-.08-.23-.39v-16.26c0-.19-.21-.24-.21-.47s.1-.16.26-.16h2.03a.44.44 0 0 1 .37.21l4.47 11.63c.11.26.21.6.39.6s.26-.32.37-.6l4.21-11.5a.51.51 0 0 1 .44-.34h1.82a.37.37 0 0 1 .37.35z"/><path d="m474.39 50.34a8.69 8.69 0 0 1 -8.57 8.81 8.44 8.44 0 0 1 -5.16-1.73 8.38 8.38 0 0 1 -5.11 1.73 8.8 8.8 0 0 1 0-17.59 8.4 8.4 0 0 1 5.11 1.73 8.53 8.53 0 0 1 5.16-1.73 8.69 8.69 0 0 1 8.58 8.78m-14.5 6.38a8.91 8.91 0 0 1 -.15-12.61l.15-.15a5.64 5.64 0 0 0 -4.21-1.78c-3.78 0-6.12 3.2-6.12 8.16s2.35 8.19 6.12 8.19a5.58 5.58 0 0 0 4.21-1.81m-.5-6.38a10.29 10.29 0 0 0 1.26 5.32 10.19 10.19 0 0 0 1.34-5.32 10.32 10.32 0 0 0 -1.33-5.34 10.47 10.47 0 0 0 -1.26 5.32m12.37 0c0-5-2.32-8.16-6.12-8.16a5.59 5.59 0 0 0 -4.19 1.84 9 9 0 0 1 .07 12.7l-.07.06a5.52 5.52 0 0 0 4.19 1.81c3.8 0 6.12-3.22 6.12-8.19z"/><path d="m513.4 29.57a8.38 8.38 0 1 1 -16.74 0 8.38 8.38 0 1 1 16.75 0m-14.19 0c0 4.89 2.23 8.06 5.82 8.06s5.86-3.18 5.86-8.06-2.23-8-5.86-8-5.82 3.16-5.82 8z"/><path d="m483.09 37.79v-16.4c0-.37.32-.4.64-.42.81-.06 2-.08 2.62-.08 4.32 0 8.41 2.74 8.41 8.7 0 4.36-3.13 8.7-8 8.7h-3.36c-.13 0-.32-.13-.32-.5m3.57-.21c3.63 0 5.7-3.34 5.7-8 0-6-2.64-7.91-5.23-7.91-1.29 0-1.53.16-1.53.6v14.58c0 .58.18.73 1.06.73z"/><path d="m476.75 58.47v-16.41c0-.36.32-.39.64-.42.8 0 2.05-.07 2.62-.07 4.32 0 8.41 2.74 8.41 8.7 0 4.36-3.13 8.69-8 8.69h-3.37c-.13 0-.32-.13-.32-.49m3.57-.21c3.63 0 5.7-3.35 5.7-8 0-6-2.64-7.91-5.23-7.91-1.29 0-1.53.15-1.53.6v14.57c0 .58.18.73 1.06.73z"/><path d="m476.93 21.71c-4.25 0-6.08 3.34-6.08 7.69 0 5.46 3.18 8 5.35 8 .78 0 1-.13 1-.44v-7.5c0-.26-.2-.32-.2-.46s0-.11.25-.11h1.62c.39 0 .62.13.64.5v8.09c0 .44 0 .62-.23.64-.44 0-1.22.08-1.56.08-6.57 0-9.41-4.51-9.41-8.77a8.41 8.41 0 0 1 8.39-8.43c2.12 0 2.76.49 2.76.82s-.32.39-.59.39c-.65 0-1-.49-1.94-.49z"/><path d="m441.66 42.4c-4.25 0-6.2 3.51-6.2 7.85 0 5.63 3.46 8 6.1 8 .77 0 1-.13 1-.44v-7.51c0-.25-.2-.32-.2-.46s.05-.1.25-.1h1.62c.39 0 .62.13.64.49v8.08c0 .44 0 .62-.23.65-.44 0-1.22.07-1.55.07-7.05 0-10.15-4.1-10.15-8.75a8.66 8.66 0 0 1 8.5-8.61c2.13 0 2.78.5 2.78.83s-.29.39-.6.39c-.64 0-1-.49-1.91-.49z"/><path d="m521.55 21.27a4.2 4.2 0 0 1 2.93 2.39 4.64 4.64 0 0 1 -1.23 4.54 6.09 6.09 0 0 1 -1.61 1v.09c1.06.4 2.35 1.22 2.56 2.47.47 2.1-.65 4.8 1.29 6.27a.26.26 0 0 1 -.26.26c-.8-.11-1.79.27-2.39-.32-1.36-2.22 0-5.56-1.62-7.68-.58-.76-1.56-.68-2.43-.84a.34.34 0 0 1 -.15-.37c.6-.19 1.34-.08 1.87-.43a3 3 0 0 0 1.61-2.13 4.3 4.3 0 0 0 -1.29-4.35 3.74 3.74 0 0 0 -2.73-.57l-.2.2-.06 16.2a.6.6 0 0 1 -.34.24h-1.8a.67.67 0 0 1 -.29-.5v-16.54a.6.6 0 0 1 .29-.32c1.93.08 4.11-.32 5.8.34z"/><path d="m453.7 21a.42.42 0 0 1 .43.25 1 1 0 0 1 0 .52 13.26 13.26 0 0 0 -4.66-.06.62.62 0 0 0 -.32.32v6.77c0 .15.2.1.29.14h3.26c.06.17.23.33.13.52h-3.59l-.11.14v7.62a.59.59 0 0 0 .32.34 24.6 24.6 0 0 0 3.94-.08 1.88 1.88 0 0 0 .88-.49l.09.08c-.06.36.14.89-.18 1.1l-.32.06h-6.81a.58.58 0 0 1 -.28-.23v-8.36c-.29-.57-1.31.1-1.35-.69.41-.21 1.1.1 1.35-.4v-7.45a.38.38 0 0 1 .23-.18h6.61z"/><path d="m464.47 22a4.17 4.17 0 0 1 1.53 3.93c-.2 1.47-1.7 2.55-2.93 3.14v.14c1.18.63 2.46 1.79 2.54 3.19.28 1.93-.38 4.25 1.12 5.64 0 .09 0 .22-.09.23-.91-.15-2.34.44-2.58-.83-.94-2-.2-4.66-.78-6.79a2.21 2.21 0 0 0 -1.37-1.32c-.47-.16-1.11.08-1.52-.21a.51.51 0 0 1 -.06-.32l.11-.08a3.16 3.16 0 0 0 2.79-1.29 4.57 4.57 0 0 0 .35-4.16c-.75-1.46-2.25-1.81-3.8-1.68a.41.41 0 0 0 -.2.19v16.22l-.2.2h-1.7a.42.42 0 0 1 -.26-.26v-16.67a.63.63 0 0 1 .46-.33c2.35 0 4.76-.18 6.62 1z"/><path d="m443.44 33a4 4 0 0 0 -1.88-3.2 14.9 14.9 0 0 0 -1.78-.8c-.1-.11.05-.18.11-.26a4.56 4.56 0 0 0 1.84-1.44 3.68 3.68 0 0 0 .38-3.83c-1.42-2.9-4.75-2.55-7.65-2.53-.22 0-.53 0-.59.27v16.79a.7.7 0 0 0 .37.17c2.49 0 5.16.21 7.19-1a4.57 4.57 0 0 0 2-4.14m-3 3.1c-.88 1.45-2.53 1.47-4.08 1.38a.7.7 0 0 1 -.38-.22v-15.45c.14-.26.48-.21.74-.26 1.26 0 2.5.06 3.25 1.1a4.47 4.47 0 0 1 -.06 4.75 2.91 2.91 0 0 1 -2.7 1.38.76.76 0 0 0 -.2.19c.19.64 1 .21 1.52.37a2.63 2.63 0 0 1 2 1.18 5.68 5.68 0 0 1 -.06 5.56z"/><path d="m520.69 58.48-5-14.65-.52-1.66c-.1-.16-.11-.4-.34-.46h-1.81a.72.72 0 0 0 -.33.4l-2.33 8.14-.19.23-1.53.07a.19.19 0 0 0 -.1.25c.25.48.94.17 1.41.26l.09.06c-.72 2.56-1.45 5.13-2.16 7.69l.11.11c.22 0 .54.08.67-.11l2.09-7.36.15-.33h4.46l.22.24 2.58 7.36.26.28h2c.23 0 .2-.32.19-.51m-5.7-8h-3.78v-.28l1.7-6c.09 0 .05-.16.17-.11l.56 1.32 1.61 4.58c0 .14.09.48-.17.43z"/><path d="m534.46 28.9c.18 0 .42.42.42.79 0 .13-.06.16-.13.16s-.37-.16-.65-.21a8 8 0 0 0 -1.09-.06c-.53 0-1.49 0-2.3 0v8.23a.44.44 0 0 1 -.43.45h-1.44a.44.44 0 0 1 -.5-.37v-8.32a3.69 3.69 0 0 1 -1-.13.6.6 0 0 1 -.24-.39c0-.16.53-.18 1.23-.21v-7.33c0-.41.08-.52.49-.52h6.45a.41.41 0 0 1 .39.26 2 2 0 0 1 .23.68.15.15 0 0 1 -.13.16c-.5-.29-1.41-.39-3.39-.39-1.38 0-1.66.16-1.66.47v6.73h3.74z"/><path d="m641.59 18.37s.1.05.11 0c.14-.19.18 0 .27.05a1.11 1.11 0 0 1 -.14 1.21 1.36 1.36 0 0 0 -.12.12.58.58 0 0 0 .52-.57.92.92 0 0 1 0-.29c.09-.3.21-.33.43-.11 0-.18 0-.35 0-.52a.66.66 0 0 1 .41-.66.72.72 0 0 1 .8.12.7.7 0 0 1 .15.27c0 .08.07.18.13.32h-.51l.81.73.18.15.22.15.19-.29c.11 0 .28-.17.45 0 .07-.14.23.08.3-.07l.52.32h.13v.05l.28.29s.09 0 .09.05c-.08.23.32.35.11.6l.19.11-.14.24.15.07-.19.28.16.05-.33.69s0 0 0 .1-.09 0-.12 0-.18 0-.07.13a.45.45 0 0 1 -.1.1l-.48.21.14.31a2.3 2.3 0 0 1 -.4.23.48.48 0 0 0 -.33.56 3.11 3.11 0 0 0 .34 1.4c0 .07.14.12.22.15a1 1 0 0 1 .65.56.55.55 0 0 1 -.07.42c0 .11-.16.26-.13.34.12.28.11.64.4.84a.43.43 0 0 0 .33.05c.08 0 .14-.17.15-.27a1.8 1.8 0 0 0 -.32-.95c-.25-.48-.57-.94-.79-1.44a1.73 1.73 0 0 1 .2-1.92 1 1 0 0 1 .2-.16 1.78 1.78 0 0 0 .65-.71c.06-.12.22-.19.34-.27a1.82 1.82 0 0 1 .28-.11 1.46 1.46 0 0 0 -.05.2c0 .13-.26.21-.08.4s-.09.25-.11.39-.18.35-.26.54-.15.14-.25.18c-.61.22-.73.42-.63 1a4.44 4.44 0 0 0 .15.52h.07l.13-.25.11.12.26-.14v.31l.13-.19.26.77.63.33v.09a1.72 1.72 0 0 1 -.21.07c-.39 0-.5.2-.39.59a4.84 4.84 0 0 1 .13.64.23.23 0 0 1 0 .16c-.12.19-.22.37-.06.61 0 .05 0 .2-.08.29a.63.63 0 0 1 -.67.18c.24-.25.23-.4-.08-.53a1.29 1.29 0 0 1 -.65-.8l-.12-.24c-.28.18-.31.32-.11.59s.3.5.59.64a.32.32 0 0 1 .09.3 6.25 6.25 0 0 0 -.16 1.88.59.59 0 0 1 0 .22.17.17 0 0 1 -.28.06c-.24-.19-.25-.17-.41.09s-.24.43-.49.51h-.18v-.18l-.16-.05c.1-.21.17-.41.28-.6a.68.68 0 0 1 .27-.26.76.76 0 0 0 .46-.53 1.11 1.11 0 0 0 -.27-1.22l-.48.34c-.25-.1 0-.4-.22-.57l-.51.75a.14.14 0 0 0 0 .09.64.64 0 0 1 0 .57c0 .09 0 .19.06.29a1 1 0 0 1 .66 0 .14.14 0 0 1 0 .18c0 .13-.1.26-.16.38a1.14 1.14 0 0 1 -.17.33c-.18.21-.19.21.12.38h-.2a1 1 0 0 0 -.29 0s0 .15-.06.26l-.15.1c.2.1.42-.09.55.15.28-.13.28-.13.25-.38.42-.07.59-.4.78-.79a1.18 1.18 0 0 1 .25.19.54.54 0 0 1 .18.43.65.65 0 0 1 -.63.66h-.93l-3.69.06h-1.74c-.33 0-.65 0-1 0-1.08 0-2.17 0-3.25 0h-1.51l-2-.08c-.12 0-.24 0-.36 0s-.39-.26-.53-.45a.06.06 0 0 1 0-.06c.06-.17.13-.33.21-.52l.08.15c.1.15.19.17.33 0a.53.53 0 0 1 .29-.12s.13.11.12.16.09.23.21.21.25-.09.28-.18.23-.2.4-.15h.07a.29.29 0 0 0 -.52 0 1 1 0 0 1 -.24.21s-.13-.09-.13-.09c.11-.17-.06-.24-.14-.27a.59.59 0 0 0 -.31.05 1.53 1.53 0 0 0 -.27.11c0-.13 0-.26-.05-.39a1.62 1.62 0 0 0 0-.22 4 4 0 0 1 -.25-.74 5.38 5.38 0 0 1 0-1c0-.06.11-.12.18-.16a1.35 1.35 0 0 0 .72-1.2c0-.24 0-.49 0-.77a1.53 1.53 0 0 0 -.35.74 1.59 1.59 0 0 1 -.64 1 2.34 2.34 0 0 1 -.36.13l.18.19-.41.26.17.23h-.3a.42.42 0 0 1 -.23-.08.93.93 0 0 1 -.15-.78 1.5 1.5 0 0 0 0-.42 1.41 1.41 0 0 1 0-.46c.12-.3.27-.58.41-.87s.08-.33-.13-.49a1.54 1.54 0 0 1 -.25-.36h.05.08l-.17-.52c.11-.08.21-.12.21-.17s.09-.16.21-.11v-.21a.57.57 0 0 1 .51.39 1.58 1.58 0 0 0 -.21-1.11c-.2-.32-.42-.63-.6-1s-.14-1.09.32-1.28a.71.71 0 0 1 .78.18 3.52 3.52 0 0 0 .35.31.48.48 0 0 1 .14.52.44.44 0 0 0 0 .3.81.81 0 0 1 -.09 1 1.85 1.85 0 0 0 -.09.23c-.2-.09-.07-.3-.14-.49l-.09.2c-.2-.08-.22-.12-.13-.4a1.23 1.23 0 0 1 -.29-.33 1.2 1.2 0 0 1 0-.44l-.2.1c0-.11-.06-.21 0-.3s.11-.17.15-.27a.23.23 0 0 0 0-.2.26.26 0 0 0 -.21 0 .4.4 0 0 0 -.18.54c.18.36.4.7.6 1a2.33 2.33 0 0 1 .37 1.48 5.08 5.08 0 0 1 -.74 1.8 3 3 0 0 0 -.25.79c0 .2.18.32.38.24a.86.86 0 0 0 .52-.61 4.71 4.71 0 0 1 .89-1.61 4.2 4.2 0 0 0 .64-1.66c0-.06 0-.14-.06-.22l-.13.08a.8.8 0 0 1 -.12-.22c0-.15 0-.32-.07-.48s-.06-.21-.08-.32 0-.26 0-.43l-.37-.57a.42.42 0 0 1 -.35-.36.24.24 0 0 1 .09-.22c.18-.08.11-.16 0-.24a2.34 2.34 0 0 0 -.43-.33.34.34 0 0 1 -.17-.45.77.77 0 0 1 .68-.41v-.47a.88.88 0 0 0 -.24.12l-.07-.2h.2l-.17-.15.24-.13v.17l.14-.11.11.21-.22.07.4.25c.12-.07.24-.17.38-.24.32-.14.55.08.59.38s.07.44.1.66c.43 0 .45 0 .56.42 0 .15.07.36.26.45v.16a.94.94 0 0 1 0 .16c0 .15 0 .23.22.15v.09l.43-.06v.06l-.15.12c.34-.14.66-.2.86.17l.6-.08c-.19.24-.38.45-.55.67s-.15.23-.24.34-.23.17-.37 0-.39-.27-.56-.09a4.85 4.85 0 0 0 .21.45c0 .08.13.13.25.23l-.14-.38c.11.14.16.33.36.16l-.35-.43c.22 0 .19.42.5.24a1.15 1.15 0 0 0 -.05.2 1.92 1.92 0 0 0 0 .24c.12 0 .3 0 .34-.09s.27-.28.22-.52.41-.39.61-.41v.29c.46-.06.46-.06.58.09l-.36.4.35.39s0 .08 0 .14h-.19l-.42.25v.24a11.35 11.35 0 0 1 -1.3.21 2 2 0 0 1 -.62-.2c-.07 0-.14-.09-.2-.08-.28 0-.29-.15-.3-.34a.24.24 0 0 0 -.05-.13 1 1 0 0 0 0 .34.38.38 0 0 0 .22.21 4.26 4.26 0 0 0 .54.15 1.15 1.15 0 0 1 -.65.65c-.19.11-.39.2-.38.47 0 .06 0 .11-.08.2l-.24-.33a1.28 1.28 0 0 0 .14.23 1.21 1.21 0 0 1 .38.78 1.12 1.12 0 0 1 -.18.53c-.09.17-.18.33 0 .52a.25.25 0 0 1 0 .24 1.29 1.29 0 0 1 -.45.72c-.09.05-.14.15-.21.22l-.2-.4-.39.35a.17.17 0 0 0 -.06.11 6.86 6.86 0 0 0 .07 1c.07.31.31.35.57.14a.35.35 0 0 1 .5 0s0 .1.07.17h-.28v.54h.27v-.52c.19.07.31.07.32-.1a.25.25 0 0 0 -.22-.29.5.5 0 0 0 -.52.09.81.81 0 0 1 -.25.09v-.1a3 3 0 0 0 .37-.16 1.71 1.71 0 0 0 .27-.2c.14-.09.26-.19.4-.27a.44.44 0 0 1 .44.11l.19.25a.37.37 0 0 1 .53 0s.13 0 .21.06c0 .2.11.31.33.32a.56.56 0 0 0 .05-.08c.13-.24.13-.24.34-.09a.28.28 0 0 0 .12 0c.16 0 .22.09.25.26l.38-.56h.33c0-.11 0-.22-.07-.33s-.06-.3-.09-.5a3.77 3.77 0 0 1 -1.5-2 8.54 8.54 0 0 1 -.2-1.33c0-.11 0-.26.2-.28v.7a3.6 3.6 0 0 0 .55 1.68s0 0 0 0l.09.13a1.78 1.78 0 0 0 .17.27c.18.18.37.34.56.51l.33.27c.33-.17-.09-.31 0-.48l.21.16.1-.26c-.17-.16-.3-.29-.45-.41a1.37 1.37 0 0 0 -.2-.13l-.31-.39-.21-.38a9.32 9.32 0 0 1 -.23-.91 3.92 3.92 0 0 1 0-.84c0-.05.12-.11.23-.2a3.14 3.14 0 0 0 .13 1.62 3.25 3.25 0 0 0 1 1.32s.12 0 .19 0a.67.67 0 0 0 -.06-.17 3 3 0 0 1 -.89-1.69 6.73 6.73 0 0 1 0-1.1c0-.23.36-.46.62-.45a3.54 3.54 0 0 0 .46 0v-.13h-.34a1.13 1.13 0 0 1 -.2-.36.82.82 0 0 1 .07-.3h-.1l.58-.07h-.37a1.72 1.72 0 0 0 -.17-.32c-.12-.11-.12-.2.07-.36h-.29c.08.22-.07.24-.24.27v-.24h-.21c.13-.34.42-.21.65-.25-.1-.24-.26-.28-.45-.1s-.5.46-.73.71a.73.73 0 0 0 -.12.3c0 .23-.14.33-.34.33a3.4 3.4 0 0 1 .61-1c.1-.12.22-.22.33-.33s.07-.13 0-.18a2.35 2.35 0 0 0 -.32-.23 1 1 0 0 0 -.37-.05c-.22 0-.27-.08-.22-.28a.62.62 0 0 1 -.51-.51h.39c.08-.23.2-.28.43-.22a1.73 1.73 0 0 0 .51 0c-.44 0-.81-.33-1.28-.28-.1 0-.23-.11-.32-.2s-.17-.18 0-.24c-.2-.18-.32-.35-.17-.6h.26l-.14-.36c-.23.18-.42.31-.67.16 0-.13.06-.25.08-.37s0-.06 0-.06c-.22-.14-.09-.31 0-.43a.74.74 0 0 1 .6-.35.8.8 0 0 1 .9.81 2.09 2.09 0 0 1 0 .34c.24-.15.4 0 .44.3a1.63 1.63 0 0 0 .13.48c0 .1.16.16.25.24l.06-.05s-.08-.11-.12-.15a1 1 0 0 1 -.15-1.15c.09-.16.15-.18.31-.1l.25-.43a4.61 4.61 0 0 1 -.62.13c-.33 0-.38-.08-.21-.36a.5.5 0 0 1 -.41-.6c.23-.08.52.11.76-.17.4-.06.6.08.69.53a.46.46 0 0 0 .09.2 1 1 0 0 1 .19.87h.2a.45.45 0 0 1 -.16.59c-.3.21-.34.28-.24.46a.48.48 0 0 0 .62.15 3.07 3.07 0 0 0 .39-.23c-.1-.12-.22-.21-.08-.35s0-.05 0-.07c-.12-.25-.25-.49-.37-.75a.57.57 0 0 1 -.08-.28.86.86 0 0 1 .21-.59 1.9 1.9 0 0 0 .31-.33 1.57 1.57 0 0 0 .07-.58 1.49 1.49 0 0 0 -.08-.41.35.35 0 0 0 -.08-.12c.1-.27-.11-.64.17-.89a2.25 2.25 0 0 1 0-.26 1.45 1.45 0 0 0 0-.3.22.22 0 0 1 .31-.16c.13.05.11-.07.13-.15a.28.28 0 0 1 .12-.12s.07 0 .09.06a.19.19 0 0 1 0 .13.23.23 0 0 1 -.06.09l.37.19-.2.3c.19.15.06.24-.1.34l.13.07-.06.19.16.26h.48c-.12-.07-.29-.11-.38-.22a.33.33 0 0 1 .27-.51h.52c.08 0 .21 0 .24-.08.14-.23.31-.18.5-.09l.1.06-.3.07.18.09-.21.14c.23.12.5.23.45.54s-.37.21-.6.26c.09.19.07.43.39.44s.31.22.33.4a1.09 1.09 0 0 1 -.14.42 4.21 4.21 0 0 1 .29.53.44.44 0 0 1 0 .31c-.1.24-.23.46-.34.69s-.16.26 0 .41-.06.14-.09.22a.61.61 0 0 0 .79.23c.28-.16.3-.43 0-.6a.63.63 0 0 1 -.32-.55l.32-.08a.79.79 0 0 1 .21-.92.28.28 0 0 0 .06-.15c0-.37.26-.51.63-.58.14 0 .25 0 .24.21h.61c0 .24-.09.4-.44.58l.13.17c-.29.35-.61.19-.93.06.05.13.11.26.16.38-.11-.06-.15-.22-.35-.14s-.3.13-.18.4l-.3.08v.2a1.7 1.7 0 0 0 .1.14c.15.15.32.28.46.44s.34.19.43.09a1.13 1.13 0 0 0 .17-1l-.18.16zm-2.59 7.89h.22v-.07c-.22 0-.25-.17-.23-.34a.36.36 0 0 0 0-.11.6.6 0 0 0 -.06.11.42.42 0 0 0 .09.4c-.15 0 0 .12 0 .13a1.06 1.06 0 0 0 .61 0s0 0 0 0 0-.07-.06-.06-.12 0-.18 0zm7.75-5-.23-.06-.06.3.27.12-.11-.21h.14v-.19h.1-.15.15c-.21-.21-.27-.21-.33 0zm-13 .89c.31.26.56.18.63-.2-.28.25-.31.25-.66.05v.16l-.22-.11c0 .07.05.09.07.12a.75.75 0 0 1 .06.13c.1.18.23.21.35.12zm-1.57-1.83c0-.06-.15 0-.16-.09l.29-.12v.05l-.09.16.26-.11v-.19h.18c.08.19.2.09.31 0l-.14-.09.14-.18c-.25.13-.38.16-.43.05s.05-.12.08-.18l-.2-.1-.13.23h.15c0 .25-.08.3-.39.23 0 .24-.14.3-.41.26.07.25-.12.26-.28.3v.05h.26v.17l.29-.2c-.06.14-.28.2-.24.4.12-.1.19-.3.3-.32a.41.41 0 0 0 .33-.27c.05 0 .11.07.14.05s.2-.13.33-.1a.63.63 0 0 0 .23 0s0-.06.08-.09-.07-.06-.09-.05l-.68.23zm3.64 9.47-.1.14h.28c.06 0 .14.08.2.06s.07-.12.1-.19l-.1.17h-.06a.27.27 0 0 0 0-.41s-.1 0-.15 0-.28.03-.17.21zm3.61-9.66a.7.7 0 0 0 -.14.16c0 .12-.09.26-.14.37l.11.14c.15-.2.12-.43.22-.62s.21-.3.06-.48-.07-.36-.27-.38c0 .26.05.5.08.74 0 .01.05.03.08.05zm-2.1 3.39-.07-.39h-.26l-.09.47.44-.08c0 .17.11 0 .14 0s.29-.1.38-.05a1.08 1.08 0 0 0 .53.11s.1.09.13.15a.72.72 0 0 1 0 .21c.18-.21.18-.21-.33-.53h.23a6.41 6.41 0 0 0 -1 0s-.07.06-.1.09zm2.55-.91v.23s0 .19.06.27c.22-.23.21-.37 0-.5-.41-.09-.67 0-.62.36a1.22 1.22 0 0 0 .07.17l.16-.11.14.09a1.76 1.76 0 0 1 0-.38s.09-.07.14-.1a.8.8 0 0 1 .05-.05zm-1.88-6.97.16-.2-.16-.08.37-.2a.24.24 0 0 0 -.33 0l-.27.31.09.12-.35.08v.08h.18c-.19.19-.19.25 0 .38v-.25c0 .18.09.33.32.35l-.2-.3h.06c0 .18.11.26.31.19-.22 0-.16-.13-.14-.24.19.16.15-.12.26-.12v-.06zm-5.25 15.36c-.1-.06-.18-.14-.31 0a1.1 1.1 0 0 1 -.26.15l-.21.15.22.12.59.17v-.2h.21l-.18-.05zm9-1.36a.88.88 0 0 0 .06-.26s-.13-.09-.15-.08a1.59 1.59 0 0 0 -.15.21c-.15-.12-.16.1-.3.17h.15v.32l-.12-.16c.06.18.45.31.57.17s0-.11 0-.16zm-1.15-6.24a1.27 1.27 0 0 0 .27-.35.45.45 0 0 0 0-.36.43.43 0 0 0 -.66 0c.23 0 .23 0 .29.3h.06l.11-.27c.13.13.06.28 0 .42s0 .13 0 .19l-.13.29.17.47-.23.09c.36.07.49 0 .49-.33s-.19-.4-.37-.45zm.9 4.06.12-.12.48-.61.21-.42.17-.53a.75.75 0 0 0 .09-.15c.06-.16.12-.33.19-.49a4.23 4.23 0 0 1 -1.7 2.95l.36.07c-.12.06-.2.09-.26.13s-.11.12-.09.14.09.4.36.34a2.65 2.65 0 0 0 .57-.15.6.6 0 0 1 .83.16 2.06 2.06 0 0 0 .43 0c.26-.07.51-.16.76-.24.21-.28.43-.55.63-.84a.24.24 0 0 0 0-.2c-.07-.3-.18-.58-.25-.87a.9.9 0 0 1 .23-1c.1-.07.12-.24.19-.4l-.2.08c-.11-.6-.64-.74-1-1l-.23.1a1.56 1.56 0 0 1 1.25 1.12l-.15.12a.65.65 0 0 0 -.25.56c0 .15-.05.2-.19.19a.79.79 0 0 0 -.21 0 3.4 3.4 0 0 0 .15.68c.16.3.15.37-.15.54s-.69.23-.92.54a1.93 1.93 0 0 1 -.27.3c-.17.17-.31.13-.39 0a6.53 6.53 0 0 1 -.7.35.26.26 0 0 1 -.38-.17s-.06-.08-.09-.11c.14-.1.32-.17.4-.3a.66.66 0 0 1 .43-.3c.33-.12.67-.24 1-.39.16-.08.35-.21.26-.44s-.15-.25-.21-.37l-.44.17a1.31 1.31 0 0 1 0-.39c.08-.3.19-.6.29-.89a.28.28 0 0 1 .11-.13l1-.37.23-.07-1.56-.5a.66.66 0 0 1 .09.15.76.76 0 0 1 .1.37c0 .1-.16.18-.22.25-.16-.14-.33-.27-.47-.42a1.77 1.77 0 0 1 -.34-.47c-.11-.24-.15-.51-.25-.75-.17-.4.16-.85.48-.77s.72.12 1.08.19.42 0 .53-.33a1.62 1.62 0 0 0 -.18.19.22.22 0 0 1 -.17.06c-.19 0-.37-.09-.55-.09s-.27-.12-.27-.32c0-.46-.11-.57-.57-.62-.07 0-.14-.06-.22-.1a2.32 2.32 0 0 0 .39-.2.57.57 0 0 1 .91.24c0 .13.12.26.17.38l1.14-.59v-.08l-.65-.18.14-.11a.5.5 0 0 1 .13-.65l.68-.5c.16-.12.12-.25 0-.38a1.85 1.85 0 0 0 -.14-.14l-1.06-1.11.15-.26-.14-.24-.13.1.12.39v.6h.24c.09.25 0 .42-.21.59l.14.13a.48.48 0 0 1 -.53.28 1 1 0 0 0 -.77.22c.22 0 .45-.12.58.18h.24a.34.34 0 0 0 .16 0 .46.46 0 0 1 -.41.56c-.05 0-.14 0-.14.05 0 .27-.21.23-.37.25a.57.57 0 0 0 -.24.05c-.19.11-.36.24-.54.36l.79 1-.08.07a2.35 2.35 0 0 1 -.29-.26c-.17-.18-.31-.37-.48-.54a2.13 2.13 0 0 0 -.35-.27v.2l.56.32c-.29.08-.37.24-.29.49l.48-.09a.17.17 0 0 1 -.08.07c-.12.09-.3.15-.35.26a1.44 1.44 0 0 0 -.07.55v1.7a2.66 2.66 0 0 1 -1 1.92 5.63 5.63 0 0 1 -.46.36v.06a3.16 3.16 0 0 0 1.36-1.15 3.41 3.41 0 0 0 .53-1.74c.24.14.18.37.13.56s0 .24.17.28a2.66 2.66 0 0 0 .37.07v.19a1.16 1.16 0 0 1 -.14.24.16.16 0 0 1 -.15 0s-.09-.07-.08-.11 0-.34-.25-.3a2.87 2.87 0 0 1 -.15.37c-.11.23-.23.45-.34.67l-.52.66-.08-.09h.35c-.16.11-.37 0-.35.26a1 1 0 0 1 .33-.1c.07 0 .13.14.2.22zm4.07-5c-.25 0-.28 0-.37-.3-.22.06-.31 0-.36-.26h.26l-.15-.13.07-.13c-.08 0-.1.06-.15.08a.39.39 0 0 1 -.15 0l.13.21c-.21.13-.36 0-.49-.15l.1.22h-.12v.06h.28s.08-.06.12-.06.06.05.09.08l-.06.07.83.74v-.08h.25c-.26-.11-.31-.18-.25-.41l.21.05v-.05l.12-.23-.31.07zm-13-1.2v-.35h-.06l-.14.19-.37-.1c.09.22.22.3.42.21h.09c0 .17.06.32.29.2 0 .17 0 .16-.16.14a.67.67 0 0 0 -.19.05.75.75 0 0 0 .09.15 1.42 1.42 0 0 0 .12.13c.08.09.43.2.49.12s.28-.24.2-.46a1.71 1.71 0 0 1 -.08-.34 1.62 1.62 0 0 1 -.19.13l-.16.1v-.18a.37.37 0 0 1 -.38.04zm10.32 8.78a.52.52 0 0 1 .59 0h-.3v.17l.16.07c-.09.26 0 .31.24.34a1 1 0 0 0 .33 0 1.57 1.57 0 0 0 .25-.14l-.16-.18-.07-.07a1.07 1.07 0 0 0 -.79-.29c-.08 0-.15.1-.23.16-.26.19 0 .41 0 .62l.3.07.06-.45c-.33.04-.5.02-.41-.27zm-2.36-1.83.57-.29c-.24 0-.47-.36-.4-.52l-1.13.49a.28.28 0 0 0 -.06.44.66.66 0 0 0 .86-.05zm2.07-10.91.11-.15h-.74l.03-.15a.57.57 0 0 0 -.72.53h.18c-.34.17-.45.29-.44.49l.18-.11c.18-.09.32 0 .47.08s.49.06.55-.12l-.18-.14.26-.13zm-8.3 2.31.12.1-.24.12.16.18-.06-.13c.16-.09.21 0 .25.13s0 .05-.06.08c.21 0 .43 0 .64.09s.46.23.71 0h.06.26a2.61 2.61 0 0 0 -.42-.36.89.89 0 0 1 -.36-.74 1.34 1.34 0 0 0 -.07-.27h-.11c.29.25-.2.27-.08.42l-.06-.2-.05.13h.01v-.77l-.54-.1v.35a.57.57 0 0 0 0 .6h-.15c-.16 0-.19 0-.14.18s.06.15.1.22zm8.07-.67c0 .17-.07.35-.12.52s-.4.49-.59.38-.23 0-.32.17h.25l-.11.24h-.26v.05l.37.09a1.26 1.26 0 0 1 .26-.15q.34-.12.72-.21a1.84 1.84 0 0 1 .43-.03.65.65 0 0 0 .56-.22l-.19-.09c.1-.16.2-.32.29-.48s0-.11 0-.11a.64.64 0 0 0 -.17.05l.16.11-.18.24a1.82 1.82 0 0 1 -.14-.19s0-.11 0-.14a.8.8 0 0 0 .06-.71c-.2-.22-.33-.36-.46-.08l-.06-.17c0 .26.15.54-.06.78l-.24-.36-.12.3zm-9.36 12c0 .15.09.28.13.42a.29.29 0 0 0 .32.26h1.85 2.55c.06 0 .16-.11.18-.18a3.68 3.68 0 0 0 0-.47.82.82 0 0 0 -.31-.13c-.45 0-.91 0-1.36 0h-3.18c-.08 0-.15-.06-.25-.1-.09.16.09.14.22.17zm5.14-10.43h-.1-.12c.13.17.12.17 0 .36s0 .1 0 .15c-.09.22-.19.43-.28.65h-.07a1.54 1.54 0 0 0 .23-.77 3.92 3.92 0 0 1 -.33.74 3 3 0 0 1 -.57.48v.05c.39-.31.73-.16 1.09.05a1.27 1.27 0 0 0 1.34.07.8.8 0 0 1 -.13-.19s0-.06 0-.1.08 0 .1 0l.14.19c.39-.19.77-.44 1.21-.08v-.06l-.37-.27-.55.13s0 0 0 0a3.61 3.61 0 0 1 -.22-.44 2.48 2.48 0 0 1 0-.27.74.74 0 0 0 -.12-.27s-.14 0-.22-.05l-.07.27v-.2c-.1 0-.23.12-.26.09s-.32-.18-.06-.38h-.3c.23.23 0 .23-.16.38zm6.33 10.24a2.17 2.17 0 0 1 -.5.08h-1.81c-.43 0-.85 0-1.28 0h-.66a1.54 1.54 0 0 1 -.82-.1l.21.2h-.16v.37c0 .33 0 .33.31.33h2.42 2.11c.12-.63.12-.63.05-.68zm-8.3-6a3 3 0 0 0 2.56 3v-3zm1.06 2.9c0 .14-.14.3.13.21a.18.18 0 0 1 .14.06.24.24 0 0 1 -.06.32.16.16 0 0 1 -.27 0 .21.21 0 0 0 -.11-.07s0 0-.06.08a.15.15 0 0 0 0 .08h.09l2 .79a.84.84 0 0 0 .42.09 5.35 5.35 0 0 0 .7-.31zm-1.35-8a3.63 3.63 0 0 0 .35-.2c.23-.17.54-.23.65-.53a.64.64 0 0 0 0-.24h-.21.22l-.13.23-.27-.12a.77.77 0 0 0 .1-.23.54.54 0 0 0 0-.31c0-.07-.17-.1-.26-.15h-.11c-.16.24-.25.57-.6.66a1 1 0 0 0 .23.93zm4.79 10c-.26.23-.47.39-.66.58a.5.5 0 0 0 -.14.28s.13.09.21.12.12 0 .17 0c.25.07.36 0 .35-.27 0-.05 0-.1 0-.12s-.1-.1-.09-.13.1-.3.16-.48-.16-.17-.25-.17c-.34 0-.68 0-1 0a.92.92 0 0 0 0 .35c0 .13.16.25 0 .38h.51v-.06l.3-.22h-.12.21v-.06l.16-.13-.12-.18zm.15-9.23h.3l-.2-.3c.38-.11.52-.38.35-.68a1.2 1.2 0 0 1 -.16.27.65.65 0 0 1 -.69.13c-.12 0-.14 0-.16.12s0 .4-.26.4c0 0-.05.09-.05.13a.49.49 0 0 0 .42.31v-.12c.13 0 .25.11.39.14s.23-.1.17-.25-.1-.04-.14-.09zm-3.14.16-.06-.05-.19-.24-.15-.23.12-.27a3.77 3.77 0 0 1 -.62.08c-.22 0-.35-.16-.39-.41a.78.78 0 0 0 0 .39.36.36 0 0 0 .41.26c-.25.33-.25.34-.07.4v.3l.52-.07s.07.09.08.08.19-.1.32-.18zm.67-2.21-.08-.23-.16.19-.1-.31h-.08v.27l-.22.05.07.22c.05 0 .05-.07.07-.1a.46.46 0 0 1 .07-.07h.07v.24c-.15.24-.39.16-.62.15l.29.11-.14.21.56-.18-.17-.1c.14-.14.26-.18.4-.06l-.07.14.5-.06-.12-.11c.13-.15.26-.18.4 0l-.18.14h.46c0-.06.05-.15.09-.16a.25.25 0 0 1 .21 0s0 .13 0 .18l.48.16-.13-.22.26-.16v-.05a.77.77 0 0 1 -.16.07c-.17 0-.34.05-.43-.14 0 0 0-.11 0-.17l.17.06.11-.16-.2-.05-.08-.25-.14.21a.22.22 0 0 0 -.19.05s0 .09 0 .17l.17-.12.07.05c0 .08-.07.19-.14.23s-.37 0-.52-.13l-.13.1a.44.44 0 0 1 -.49.06c-.05 0-.06-.15-.09-.22zm-3.36-1.19a.52.52 0 0 0 .54.48l-.26.32a3 3 0 0 0 .49 0c.3-.06.35-.17.27-.45 0-.12 0-.21.15-.21a.21.21 0 0 0 0-.12.49.49 0 0 0 -.51-.19v.15h-.68zm3.48 11.82v1a.41.41 0 0 0 .13.26c.08.11.14.19 0 .24s-.05.07-.08.11a.52.52 0 0 0 .13.06h.24a.71.71 0 0 0 .16-.07c0-.05 0-.07-.06-.08-.18-.14-.18-.18 0-.31a.23.23 0 0 0 .08-.11 2.81 2.81 0 0 0 .05-.76c0-.1-.27-.16-.42-.23zm4.08-8c.43 0 .67-.18.62-.41-.11.24-.25.32-.45.26.11-.05.28-.08.12-.23h.12-.35l.14-.18v-.07l-.9.18.21.54c.19-.06.2.08.15.28l.46-.12zm-8.06-3.21c-.62-.15-1 .26-.93.57h.12l-.09.51.38-.22-.08.16.13-.17.23.11c0-.09.12-.21.09-.25-.18-.25.08-.46 0-.69zm6.81 3.2-.16-.13-.22.68h.45v.06a1.58 1.58 0 0 0 .12-.15l.12-.17.06.28a1.15 1.15 0 0 0 .28-.19c.06-.06.07-.16.11-.24h-.21a.38.38 0 0 0 -.23-.54zm-4.82.59a.87.87 0 0 1 0-.28c.06-.12.09-.24 0-.31s-.18 0-.24 0l-.25-.5a.54.54 0 0 0 -.24.6h-.22a.58.58 0 0 0 .5.54v-.24l.22.28c.02-.16.04-.17.23-.06zm-.07-1.16v-.07c-.2 0-.39-.06-.6.1s-.35 0-.54 0h-.28a.71.71 0 0 0 0 .15l-.3.08h.34c-.27 0-.14.22-.19.33l.22.06.13.31.25-.07c0-.09 0-.22 0-.23s.17-.19.21-.32a.39.39 0 0 1 .41-.3 1.12 1.12 0 0 0 .35-.01zm1.86 9h-1l-.08.11h.24l-.31.17h.28l-.19.05h.23a.14.14 0 0 1 -.1 0h-.08c.17 0 .2.13.29.18a1.86 1.86 0 0 0 .54.13l-.11-.19c.35.01.21-.22.29-.4zm.61-13.11a.9.9 0 0 0 -.71.3c.26.26-.1.42 0 .62l-.17.06v.06l.52.15.2-.44h-.15c0-.12-.06-.29.17-.27v-.11h.27zm1.21 3.09c.07-.23-.1-.24-.2-.27a3.21 3.21 0 0 0 -1.84-.08.84.84 0 0 0 -.61.32.31.31 0 0 0 .21 0 3.58 3.58 0 0 1 1.07-.22c.22 0 .46.09.67-.07 0 0 .08 0 .13.05h-.09zm-.74 4.34.16-.1.2.12.11-.38-.32-.07-.24.29a.72.72 0 0 0 .08.55c.15.17.32.1.48.05a1.16 1.16 0 0 0 .28-.19l.12.09c.18-.22.18-.22-.07-.36l-.14-.11c-.06.31-.06.31-.6.3zm-2.59 5.92v.3s0 .21 0 .31.06.36.3.36a.52.52 0 0 0 .51-.32c-.18-.25-.58-.23-.81-.6zm-2.42.44a1.09 1.09 0 0 0 -.25-.09.42.42 0 0 0 -.25 0 3.37 3.37 0 0 0 -.45.32s0 .12 0 .13a.64.64 0 0 0 .83 0c-.18-.11-.02-.2.12-.31zm4.28-9.46.11.08.11.07a.86.86 0 0 0 .07-.21c0-.05 0-.11 0-.16a2 2 0 0 0 0-1.07s-.06-.09-.09-.14-.1.07-.12.12a1.75 1.75 0 0 0 0 .82c-.02.21.11.39-.08.54zm5.37-2.33c0-.61-.33-.67-.75-.64a.53.53 0 0 0 -.46.49c.19-.27.39-.32.72 0a2.49 2.49 0 0 0 .38.25v-.06l-.2-.1.14-.23zm-3.11 4.16v1.85h.05c0-.58 0-1.17 0-1.75a.21.21 0 0 0 -.12-.14h-1.68v.2 1.58a.27.27 0 0 0 .13.2h1.51-1.58c0-.58 0-1.13 0-1.68 0-.2.09-.22.25-.21a5.65 5.65 0 0 0 .59 0c.27-.04.56-.05.86-.05zm.82.39-.42-.37c-.06.06-.16.13-.17.2a.81.81 0 0 0 .06.47c.09.15.13.23 0 .35s0 .07 0 .1a2 2 0 0 0 0 .49 2.85 2.85 0 0 0 .14.5zm.42.48c0 .48.12.77.52.88v-.23l.3.08zm-2.7-1.06a.61.61 0 0 0 .55-.07.37.37 0 0 1 .31.05.41.41 0 0 0 .6-.16c-1.16-.04-1.24-.03-1.45.18zm0-4.84.24-.07.21-.08a.2.2 0 0 0 .12-.29.85.85 0 0 0 -.58-.35c.28.18.28.45 0 .79zm.71 3.87c0 .14.2.35.32.3a.46.46 0 0 0 .22-.27c0-.13-.18-.27-.35-.29s-.13.18-.2.26zm-3 .31a.45.45 0 0 0 .38-.44c0-.13-.09-.16-.21-.09s-.16.08-.23.14-.16.18-.14.22.06.13.15.17zm1.07 8.68h-.06a3.71 3.71 0 0 1 0 .47.83.83 0 0 0 .53.75.33.33 0 0 0 .24 0 4.15 4.15 0 0 0 .43-.51s0-.09 0-.11c-.16.17-.31.35-.47.51a.15.15 0 0 1 -.13 0 .69.69 0 0 1 -.5-.65 3.81 3.81 0 0 0 -.09-.46zm1-14.53a7 7 0 0 0 .78.13c.07 0 .15-.06.22-.1a1.07 1.07 0 0 0 -.18-.19s-.1 0-.15 0zm-1.33 3.71h-.07a1.67 1.67 0 0 0 -.24.35.75.75 0 0 0 0 .36 3.45 3.45 0 0 0 .18.51s.07.06.1.1h.07a1.7 1.7 0 0 0 0-.22 4.91 4.91 0 0 1 -.17-.63 1.18 1.18 0 0 1 .07-.47zm1.89 1.2s.06 0 .06 0a4.5 4.5 0 0 0 .33-.75.39.39 0 0 0 -.27-.44c0 .19.06.39.07.59a.31.31 0 0 1 -.06.2c-.14.1-.3.2-.19.4zm1.23 4.91s.13 0 .13 0 0-.18 0-.21a.86.86 0 0 0 -.25-.14l.09-.08h-.45-.44c-.15 0-.27 0-.26.23a1.69 1.69 0 0 1 .31-.13c.11 0 .27-.07.32 0a.35.35 0 0 0 .36.07.23.23 0 0 1 .19.06s0 .1-.06.2zm-8-2.44c.16.27.33.1.51 0-.51 0-.6-.38-.61-.82a.79.79 0 0 0 .14.94zm5.25-.55v-.06a3.79 3.79 0 0 1 -.67.06c-.17 0-.28 0-.33.2l.25-.09c.11 0 .28-.12.33-.08s.31.1.48.11.27.1.2.31c.06-.05.13-.12.12-.16a.47.47 0 0 0 -.18-.19.81.81 0 0 0 -.27-.05zm6.67-2.6-.3.42c.45.07.57 0 .71-.26-.18.1-.24.08-.41-.16zm-4.41 6.52c.08 0 .2-.08.22-.14.08-.24-.12-.27-.31-.33h.29a5.7 5.7 0 0 0 -.92 0s-.1.07-.15.11c.19 0 .39-.21.58 0h.12l.27.13zm-.85-.76h-.3c0 .13-.08.21-.1.29a.24.24 0 0 0 0 .15s.14.09.16.07a.58.58 0 0 0 .17-.21.84.84 0 0 0 .07-.29zm-.19-10.4a.73.73 0 0 0 -.61-.06.38.38 0 0 0 -.14.19s.09.11.15.13.09-.06.14-.08zm-2.47 7.35c.13 0 .21 0 .17-.17s0-.08 0-.11 0-.15 0-.17a.19.19 0 0 0 -.19 0s0 .1-.07.16a.5.5 0 0 1 0 .12c-.09.17-.09.17.09.17zm2.32 2.52a1 1 0 0 0 .26.09c.27 0 0-.3.23-.38a1.9 1.9 0 0 0 -.29-.08.14.14 0 0 0 -.11.06 3.09 3.09 0 0 0 -.05.31zm-.76-.83a4.45 4.45 0 0 0 -.55-.11 2.81 2.81 0 0 0 -.58 0c-.07 0-.13.07-.2.11v.07l.21-.07a2.14 2.14 0 0 1 .35-.06 3.85 3.85 0 0 1 .47.08.25.25 0 0 1 .14.08s0 .08-.07.13h.19zm.22-.06a.66.66 0 0 0 0-.92zm-5.47-2.14c-.07.29 0 .47.17.55s.37 0 .54-.21c-.39.29-.5-.08-.67-.34zm8.11 6.41a.46.46 0 0 0 .49-.13c0-.05 0-.17 0-.26s-.18 0-.23.06a2.31 2.31 0 0 0 -.22.33zm3.87 1.79-.12.6.29-.22c.1-.08.19-.18.07-.3s-.13-.06-.2-.08zm-6.2-2.19.1-.38-.77.1zm-5.37-5.21c-.17-.07-.43.07-.53-.16a2.39 2.39 0 0 1 -.08-.58c-.12.26-.19.47 0 .7s.4.04.61.04zm4.28-3.07h.16l-.12.13h.15l.13-.76a.56.56 0 0 0 -.32.63zm-3.74 10.41c.17.08 0 .47.41.37l-.08-.33.13-.25-.06-.05c-.01.28-.23.2-.39.26zm5.25-3.61v-.09c-.09 0-.22 0-.27 0s-.11.36 0 .39c.32.12.17-.2.28-.3zm-2.51-2.56a.93.93 0 0 0 .22-.1s0-.12 0-.13a.41.41 0 0 0 -.22 0c-.05 0 0 .14-.07.19s-.1.19 0 .21.29.18.34-.08-.33.16-.27-.09zm-4.33-1.78h-.11c.05.29.09.59.15.88 0 0 .12.06.22.11a2.73 2.73 0 0 1 -.18-.44c-.05-.17-.06-.36-.09-.55zm6.22.07h-.06v.85a.68.68 0 0 0 .05-.85zm-4-.12a.41.41 0 0 0 -.68.11h.61l-.16-.09zm3.65-4.4v-.07l-.66-.19a.35.35 0 0 0 -.45.23c.35-.21.72-.04 1.09.03zm-5.89 2.93.19.29c.13-.18.31-.33.16-.57zm6.48-3h1.12l-.15-.08c-.33-.26-.65.02-.99.05zm.93 6.91c-.65-.23-.65-.23-.79 0zm-1.83-.84v-.06l-.69.11a.15.15 0 0 0 0 .11.18.18 0 0 0 .12.09 3.21 3.21 0 0 0 .43-.07c.16 0 .33-.07.48.06 0-.06-.08-.11-.14-.12a.87.87 0 0 0 -.55 0 .86.86 0 0 1 -.28 0v-.06zm2.63.84c-.11-.23-.15-.23-.7 0zm2.93 4.43a2.18 2.18 0 0 0 .27.07h.14s0-.16 0-.18a.51.51 0 0 0 -.26-.07c-.14-.03-.21.05-.17.15zm-10.59-6.71c-.07.24 0 .41.28.41s.43 0 .59.17c-.07-.09-.15-.2-.24-.21a.63.63 0 0 1 -.63-.37zm9.3 8.17h-.07l-.21-.38c0 .35 0 .38.37.46a.36.36 0 0 0 -.27-.46 1.62 1.62 0 0 1 .1.18c.03.07.05.14.08.2zm-3.31-5.81c-.06 0-.14 0-.17.05a.45.45 0 0 0 .12.48c.11.08.18.08.31 0-.45-.2-.45-.22-.26-.53zm.27 2.26c-.05 0-.11.06-.11.07.07.29-.18.21-.31.27l-.11.06s.1.08.13.07l.52-.21zm5.94-7.85c0 .14-.28.09-.15.27s.17.08.25.12l.09-.31zm-12.74 4.24c-.16-.27.07-.58-.17-.81v.43s-.04.29.17.38zm10.1 1.41c0-.26-.15-.37-.31-.33s-.09.05-.09.09a.13.13 0 0 0 .06.11 2.68 2.68 0 0 0 .34.13zm-4.57-4.68-.09-.13.18.65c.1-.1.07-.57 0-.62zm.81 6.38c-.18.5-.13.6.33.66a2 2 0 0 0 -.17-.12.24.24 0 0 1 -.13-.38s-.03-.11-.03-.16zm-3.64 3.87c.07.2.19.3.41.21-.01-.19-.19-.28-.41-.21zm1-6c0 .2 0 .2.74.14 0 0-.11-.08-.16-.06a.47.47 0 0 1 -.53-.13zm4.66 5.73h.07l-.23-.41c-.15.33-.13.47.08.53l-.08-.35zm4.76-9.82.29-.16c-.12-.17 0-.2.14-.28-.21.04-.36.04-.38.39zm-4.67.49c.21 0 .28-.14.37-.25s0-.11-.08-.12a.44.44 0 0 0 -.2 0h.07-.15l.23.05h-.23.1zm1 9.64c-.33-.06-.43 0-.4.24.29.05.29-.19.42-.29zm-4.68-5.95c0 .06.06.14.08.14l.55-.07v-.09l-.34-.09.13.06v.05zm9-2.46c-.09-.11 0-.32-.23-.2a1.37 1.37 0 0 0 -.26.28l.12.11.16-.24zm-6.86 3.46v-.08c-.23-.07-.5.18-.71-.14v.22a2.33 2.33 0 0 0 .36 0c.19-.01.3-.04.42-.05zm-5.47-3.71h-.43c.1.14.19.27.39.15s.21-.16.11-.2zm2.62-.77-.1.29.45-.38v-.07zm-1.91 9.64h.07c.24-.07.36-.22.29-.36l-.17.23.13-.27h-.06zm9.42-9.5v-.07c-.21-.06-.33.07-.44.22v.06zm-4.78 5.89c.29-.1.41-.07.49.14l.1-.16-.18-.08.11-.06c-.29-.08-.35-.07-.45.11zm-2.12-3.35a.56.56 0 0 0 .71-.06zm.41-.86h-.31s0 0-.06.06 0 0 0 .05a.74.74 0 0 0 .55-.16l-.31-.08zm8.75-2.39c.07.19.19.18.32.14s0-.1 0-.13-.13-.11-.25-.06zm-9.88 3.39a2 2 0 0 0 -.21.09c0 .15 0 .33.14.44a.85.85 0 0 0 .19.06v-.11c-.2-.13-.24-.25-.05-.53zm-4.34-.44v-.71c.05.23-.14.45.07.66zm13.8-4c-.32.1-.35.14-.24.31l.05-.14v.21zm-5.41 1.78c0-.09.07-.19 0-.22a.55.55 0 0 0 -.23-.11s-.07 0-.07 0a.85.85 0 0 0 .1.19.64.64 0 0 0 .27.08zm6.1-.86v-.07c-.13-.06-.24-.3-.44 0zm-6.29 5.12v-.05l-.28-.11v.09s0 0 .09.09h-.27-.1s0 .07 0 .07a.35.35 0 0 0 .13.05zm6-3.94h-.12l-.09.27h.25zm-2.29 7.75c.21-.26.2-.3 0-.5zm-9.52.48a.92.92 0 0 0 .21.12s.13 0 .14-.07a.81.81 0 0 0 0-.22zm5.51-3.45-.3-.16.1.21h-.25c.15.08.28.08.56-.11zm3.48 2.44v.12l.36-.09v-.11zm-9.65-6.01.27.44c-.01-.3-.06-.43-.27-.44zm6.39.38c-.15.11-.16.22-.06.34a.45.45 0 0 0 .11 0 .21.21 0 0 0 0-.11c-.03-.05-.06-.13-.08-.23zm5.31-3.8c0 .08-.09.15-.09.23s.12.07.21.12a1.43 1.43 0 0 0 0-.21.64.64 0 0 0 -.15-.14zm1 1.29h-.06c0 .07 0 .18.06.19a.45.45 0 0 0 .22 0v-.07zm-9.16 1.61h-.06c0 .05 0 .13.06.15a.65.65 0 0 0 .58-.16c-.55.15-.55.15-.58.01zm-.86 7.66h-.06l-.25.33s.14 0 .16 0a3.13 3.13 0 0 0 .15-.33zm1-6.63v.07l.62-.21v-.07zm4.59 6.53h-.09l-.18.17h.26z"/><path d="m638.48 50.41a2.57 2.57 0 0 1 2.67-3.08 1.29 1.29 0 0 1 .87.27.57.57 0 0 1 0 .75.55.55 0 0 1 -.77 0l-.17-.17a1 1 0 0 0 -1-.29 1.62 1.62 0 0 0 -1.24 1.61 1.18 1.18 0 0 0 .09.37c.07.18.15.3.41.23a1.31 1.31 0 0 1 .65 0 .52.52 0 0 1 .48.51.7.7 0 0 1 -.43.62 1.09 1.09 0 0 1 -1.21-.23l-.26-.28a2.28 2.28 0 0 0 -1.37 1.7 2.25 2.25 0 0 0 .63 2.1 3.72 3.72 0 0 0 1.47.84 5.49 5.49 0 0 0 2.2.27 4.59 4.59 0 0 0 2.56-.95 2.54 2.54 0 0 0 1-1.76 1.3 1.3 0 0 0 -.62-1.39 2.24 2.24 0 0 0 -1.4-.22 1.69 1.69 0 0 0 -.92.33 1 1 0 0 0 -.29.44c-.08.32.13.48.44.39a2 2 0 0 1 .54-.09.49.49 0 0 1 .44.7 1 1 0 0 1 -1.08.5 1 1 0 0 1 -.8-1 1.77 1.77 0 0 1 .54-1.25 2.44 2.44 0 0 1 1.61-.79 12.59 12.59 0 0 1 1.37 0c.51 0 1 .09 1.53.08a2.25 2.25 0 0 0 1.39-.46 1.21 1.21 0 0 0 .4-1.47.49.49 0 0 0 -.87-.09 1 1 0 0 1 -.59.44.59.59 0 0 1 -.67-.22.6.6 0 0 1 .19-.67 1.55 1.55 0 0 1 1.5-.37 1.38 1.38 0 0 1 1 1.68 2.46 2.46 0 0 1 -1.77 1.93 4.06 4.06 0 0 1 -1.79.25 5.48 5.48 0 0 1 .27.71 2.93 2.93 0 0 1 -.16 1.68 4 4 0 0 1 -1.9 2.07 5.76 5.76 0 0 1 -2.19.71 6.11 6.11 0 0 1 -2.62-.23 3.84 3.84 0 0 1 -1.6-.92 2.59 2.59 0 0 1 -.72-1.47 3.35 3.35 0 0 1 .85-2.71 5.1 5.1 0 0 1 .62-.61c.24-.17.47-.3.72-.46z"/><path d="m609.42 48.24v-.33c.3 0 .52.05.74.05h2.34.94a4.48 4.48 0 0 1 2.06.47 1.76 1.76 0 0 1 .91 2 1.93 1.93 0 0 1 -1.3 1.46 5.38 5.38 0 0 0 -.55.24c.24 0 .49.07.73.12a2.61 2.61 0 0 1 1.9 1.25 2 2 0 0 1 -.16 2.21 2.53 2.53 0 0 1 -1.85 1c-.69 0-1.39.08-2.08.09-.87 0-1.73 0-2.59 0-.34 0-.67 0-1 .06v-.32c.22 0 .47-.06.72-.13a.58.58 0 0 0 .44-.55 24.83 24.83 0 0 0 .08-3c0-.87 0-1.75 0-2.62a12 12 0 0 0 -.12-1.33c0-.36-.27-.43-.58-.5s-.35-.15-.63-.17zm2.78 4.06c0 1.06 0 2.09.08 3.12a.83.83 0 0 0 .72.84 3.34 3.34 0 0 0 1.22 0 1.59 1.59 0 0 0 1.31-1 2.66 2.66 0 0 0 .15-1.34 1.72 1.72 0 0 0 -1.11-1.44 6.21 6.21 0 0 0 -2.37-.18zm.07-.36c.47 0 .93 0 1.37-.08a1.42 1.42 0 0 0 1.19-.89 2.55 2.55 0 0 0 .09-1.37 1.54 1.54 0 0 0 -1-1.12 3.76 3.76 0 0 0 -1.41-.13.29.29 0 0 0 -.29.33v3z"/><path d="m687.75 56.13c0 .27 0 .37-.58.37a2.13 2.13 0 0 0 -1.06.33.58.58 0 0 1 -.24 0l-.25-.88a4.15 4.15 0 0 1 -.67.52 3 3 0 0 1 -1 .35 3 3 0 0 1 -1.82-.29 2.73 2.73 0 0 1 -1.44-1.87 3.13 3.13 0 0 1 .57-2.74 2.69 2.69 0 0 1 1.79-1.06 2.94 2.94 0 0 1 1.61.18 7.12 7.12 0 0 1 .78.48.61.61 0 0 0 0-.14q0-1.07 0-2.13a1.41 1.41 0 0 0 -.07-.41.69.69 0 0 0 -.66-.47c-.3 0-.3 0-.29-.33l2.22-.43v7.2a4.55 4.55 0 0 0 .09.73.69.69 0 0 0 .72.57zm-2.28-2.47v-.15a6.12 6.12 0 0 0 0-1 1.38 1.38 0 0 0 -1.12-1.1 1.63 1.63 0 0 0 -2 .9 4 4 0 0 0 -.14 3 1.71 1.71 0 0 0 2 1.19 1.52 1.52 0 0 0 1.21-1.38c.03-.52.03-.99.05-1.46z"/><path d="m589.89 48.39v-.33l2.19-.42v4.21l.52-.48a2.27 2.27 0 0 1 1.33-.54 3 3 0 0 1 1.33.16 1.47 1.47 0 0 1 1 1.3v3.4a.65.65 0 0 0 .65.67h.3v.27h-3.07v-.24a.86.86 0 0 1 .23 0c.45 0 .69-.26.69-.71 0-.91 0-1.82 0-2.73a3.47 3.47 0 0 0 -.16-.9 1 1 0 0 0 -1.32-.72 1.79 1.79 0 0 0 -1.48 1.92v2.45a.66.66 0 0 0 .65.69h.31v.35h-3.18v-.34c.13 0 .2-.06.28-.06.55-.06.75-.24.75-.78 0-2 0-3.9 0-5.84 0-.27-.07-.54-.08-.8a.63.63 0 0 0 -.68-.58z"/><path d="m578.7 48.2v-.3h4.06v.29c-.23 0-.47.06-.69.12a.69.69 0 0 0 -.56.69v1.08 7.05a4 4 0 0 1 -.28 1.59 2.18 2.18 0 0 1 -1.53 1.28 5 5 0 0 1 -2 .1 3.65 3.65 0 0 1 -1.42-.34.64.64 0 0 1 -.4-.73c.13-.4.45-.45.86-.35a1.33 1.33 0 0 1 1 .76.6.6 0 0 0 .6.36 3.18 3.18 0 0 0 .62 0 1.16 1.16 0 0 0 .91-1 5.91 5.91 0 0 0 .09-1.12q0-4.11 0-8.22a2.16 2.16 0 0 0 -.16-.71.68.68 0 0 0 -.6-.39z"/><path d="m660.65 56.53c-.37-.07-.33-.44-.52-.65l-.59.36a3.65 3.65 0 0 1 -1.58.52 7.84 7.84 0 0 1 -1.19.05 4.68 4.68 0 0 1 -2.82-1 3.87 3.87 0 0 1 -1.4-2.5 6.8 6.8 0 0 1 -.08-1.19 4.55 4.55 0 0 1 1-2.64 4.47 4.47 0 0 1 2-1.43 4.56 4.56 0 0 1 1.47-.28 5.17 5.17 0 0 1 2 .26c.35.15.7.32 1.07.49a2.35 2.35 0 0 1 .15-.42c0-.07.13-.1.2-.15s.11.12.11.19v1.58c0 .28 0 .57.05.84-.33.09-.34.07-.41-.26a2.82 2.82 0 0 0 -.79-1.43 2.77 2.77 0 0 0 -1.88-.77 2.9 2.9 0 0 0 -2 .61 3.12 3.12 0 0 0 -.9 1.26 6.34 6.34 0 0 0 -.42 2.95 4.44 4.44 0 0 0 .8 2.44 2.65 2.65 0 0 0 1.8 1.1 3.12 3.12 0 0 0 1.88-.25 2.44 2.44 0 0 0 1.24-1.21c.22-.45.39-.93.59-1.42h.22z"/><path d="m697.73 56.42v.26h-3.07v-.24l.48-.1c.41-.11.48-.25.49-.59 0-1.06 0-2.13 0-3.2a2.45 2.45 0 0 0 -.1-.66.43.43 0 0 0 -.48-.32h-.28v-.25l1.86-.43.19 1.15a2.12 2.12 0 0 1 1.48-1.04 2.64 2.64 0 0 1 2.07.3 1.24 1.24 0 0 1 .56 1c0 1.1.05 2.2.05 3.3 0 .57.29.66.66.73l.26.05v.3h-3.06c0-.29 0-.28.23-.32.55-.07.67-.21.69-.75 0-.89 0-1.79 0-2.68a2.16 2.16 0 0 0 -.32-1.23 1 1 0 0 0 -.75-.41 1.65 1.65 0 0 0 -1.34.42 1.59 1.59 0 0 0 -.55 1.21v2.81c0 .36.23.58.64.64z"/><path d="m604.92 56.52v.16h-3.08v-.23a2.27 2.27 0 0 1 .25-.06c.58-.09.67-.25.69-.75 0-.9 0-1.8 0-2.7a2 2 0 0 0 -.31-1.21 1 1 0 0 0 -.72-.42 1.7 1.7 0 0 0 -1.93 1.77v2.57a.64.64 0 0 0 .66.74h.28v.35h-3v-.26l.44-.1c.37-.08.49-.25.5-.63 0-1.08 0-2.17 0-3.25a3.94 3.94 0 0 0 -.08-.68.44.44 0 0 0 -.39-.34h-.49v-.3l1.89-.45.18 1.14c.24-.24.49-.5.76-.74a1.76 1.76 0 0 1 1-.37 2.53 2.53 0 0 1 1.81.37 1.37 1.37 0 0 1 .57 1.08v3.5a.67.67 0 0 0 .68.72z"/><path d="m586.19 56.88a3.34 3.34 0 0 1 -2.47-1 2.8 2.8 0 0 1 -.82-2.29 2.75 2.75 0 0 1 1.35-2.14 3.4 3.4 0 0 1 2.27-.56 3.33 3.33 0 0 1 2.57 1.55 2.62 2.62 0 0 1 .38 1.72 2.91 2.91 0 0 1 -.47 1.35 3.07 3.07 0 0 1 -2 1.29c-.24.02-.53.04-.81.08zm-1.9-3a3.62 3.62 0 0 0 .27 1.47 1.75 1.75 0 0 0 2.05 1.08 1.63 1.63 0 0 0 1.26-1.2 4.45 4.45 0 0 0 0-2.63 1.79 1.79 0 0 0 -1.44-1.44 1.66 1.66 0 0 0 -1.81.85 3.94 3.94 0 0 0 -.33 1.92z"/><path d="m673.93 53.76a2.81 2.81 0 0 1 -1.25 2.5 3.26 3.26 0 0 1 -1.84.6 3.43 3.43 0 0 1 -2.15-.59 3 3 0 0 1 -1.29-2 2.84 2.84 0 0 1 1.56-3 3.55 3.55 0 0 1 2-.41 3.31 3.31 0 0 1 2.61 1.61 2.17 2.17 0 0 1 .36 1.29zm-5.19.11a8.12 8.12 0 0 0 .13 1 1.82 1.82 0 0 0 1.5 1.63 1.6 1.6 0 0 0 1.69-.66 3.16 3.16 0 0 0 .49-1.82 5.74 5.74 0 0 0 -.12-1.17 1.79 1.79 0 0 0 -1.52-1.63 1.62 1.62 0 0 0 -1.82.95 4 4 0 0 0 -.35 1.7z"/><path d="m689.7 53.16a9.15 9.15 0 0 0 0 1.05 2.7 2.7 0 0 0 .51 1.36 1.84 1.84 0 0 0 2.68.43c.21-.17.41-.36.62-.55l.3.3a3 3 0 0 1 -1.81 1.06 3.57 3.57 0 0 1 -2.4-.4 2.59 2.59 0 0 1 -1.31-1.86 3.06 3.06 0 0 1 .71-2.55 2.88 2.88 0 0 1 1.92-1.13 3.23 3.23 0 0 1 2.21.43 2 2 0 0 1 .9 1.59c0 .19-.06.26-.26.26zm.14-.43h.23 2.19c.16 0 .39 0 .41-.26a1.2 1.2 0 0 0 -.19-.76 1.31 1.31 0 0 0 -1.44-.53 1.65 1.65 0 0 0 -1.2 1.55z"/><path d="m620 53.17a3.16 3.16 0 0 0 .3 2.16 1.9 1.9 0 0 0 2.32 1 2.16 2.16 0 0 0 1-.73c.08-.09.16-.2.29 0s.23.18.05.36a2.84 2.84 0 0 1 -1.52.9 3.37 3.37 0 0 1 -2.88-.6 2.61 2.61 0 0 1 -1-1.77 3.12 3.12 0 0 1 1-2.8 2.72 2.72 0 0 1 1.48-.72 3.23 3.23 0 0 1 2.13.34 1.94 1.94 0 0 1 1 1.77c0 .18-.12.16-.23.16h-4zm.06-.4h2.36c.44 0 .52-.09.48-.51a1.08 1.08 0 0 0 -.5-.88 1.47 1.47 0 0 0 -1.81.2 2.21 2.21 0 0 0 -.5 1.19z"/><path d="m674 51.25v-.25h3v.28l-.46.09a.41.41 0 0 0 -.32.55c.15.43.32.85.49 1.27.26.63.54 1.26.81 1.89a1.31 1.31 0 0 1 .09.17c.21-.48.42-.94.61-1.4s.45-1.09.66-1.64a1.11 1.11 0 0 0 .1-.53c0-.31-.33-.33-.58-.39a.56.56 0 0 0 -.2 0v-.18h2v.18c-.35 0-.51.26-.64.6-.25.61-.54 1.2-.81 1.8-.35.77-.69 1.54-1 2.31-.25.57-.51 1.14-.77 1.71s-.49 1.13-.76 1.68a5.46 5.46 0 0 1 -.54.75.55.55 0 0 1 -.52.16c-.29 0-.39-.46-.17-.69a.89.89 0 0 1 .35-.26 1.41 1.41 0 0 0 .8-.79c.27-.61.56-1.21.84-1.82a.36.36 0 0 0 0-.25c-.34-.78-.69-1.55-1-2.33s-.67-1.49-1-2.25a1 1 0 0 0 -.98-.66z"/><path d="m628.72 48.39v-.33l2.2-.43v8c0 .46.28.63.68.68l.31.06v.26h-3.19v-.24a5.49 5.49 0 0 0 .57-.1.52.52 0 0 0 .44-.51c0-.77 0-1.53 0-2.29q0-1.74 0-3.48a10.54 10.54 0 0 0 -.08-1.12.63.63 0 0 0 -.69-.55z"/><path d="m628.07 56.41v.27h-3.07v-.26a3.78 3.78 0 0 0 .46-.1.57.57 0 0 0 .46-.64q0-3.13 0-6.27a3.5 3.5 0 0 0 -.08-.65c-.05-.22-.26-.36-.66-.39s-.28 0-.25-.33l2.17-.43v7.83a1.67 1.67 0 0 0 .06.5.69.69 0 0 0 .62.43z"/><path d="m662.07 56.68v-.26l.5-.1a.48.48 0 0 0 .44-.51c0-1 0-1.91 0-2.87a5.31 5.31 0 0 0 -.09-1c-.06-.33-.21-.42-.56-.42h-.31v-.29l1.88-.45.17 1.22a4.74 4.74 0 0 1 .56-.67 1.92 1.92 0 0 1 1.94-.44.62.62 0 0 1 .43.74.47.47 0 0 1 -.38.36.52.52 0 0 1 -.55-.23 1.6 1.6 0 0 0 -.31-.37.51.51 0 0 0 -.4 0 1.41 1.41 0 0 0 -1.09 1.37c-.07 1 0 2.06-.06 3.08a.61.61 0 0 0 .62.55h.4v.27z"/><path d="m636.42 28.93c-.42-.18-.43.22-.57.38l-.6-.29-.33.28c-.11-.05-.23-.12-.14-.28l-.52-.22a.43.43 0 0 0 -.16 0v.06a1.1 1.1 0 0 1 -.16-.37.44.44 0 0 0 -.31-.41.28.28 0 0 1 -.15-.38c.16-.33.16-.33 0-.7l-.26.07a1.09 1.09 0 0 0 0-1.45.6.6 0 0 1 .93 0c.08.13.18.25.27.37.44.09.38.49.49.79 0 .11.09.21.15.34-.27 0-.45-.06-.47-.35h-.06c-.05.2-.11.4-.15.61s.18.5.42.63a1 1 0 0 0 .89.06.39.39 0 0 1 .54.33c0 .07.09.13.11.2a1.44 1.44 0 0 1 .08.33zm-1.56.29h.07l.19-.3c-.12 0-.24 0-.25 0a.75.75 0 0 0 -.01.3z"/><path d="m632 65.68h-2.73v-.17c.41-.09.46-.16.46-.59v-1.69c0-.39-.07-.48-.45-.56 0-.14 0-.25.17-.16a.58.58 0 0 0 .23 0h1.61c.16 0 .31 0 .51-.05v.9c-.11 0-.2 0-.25-.14a.62.62 0 0 0 -.59-.45h-.48v1.09c.33.06.44 0 .54-.3a.58.58 0 0 1 .16-.15h.07v1.16c-.1 0-.19.06-.25-.1-.11-.34-.18-.38-.55-.37v1a.3.3 0 0 0 .32.28 2.77 2.77 0 0 0 .5 0c.37-.07.45-.4.53-.72h.21z"/><path d="m648 63.84a1 1 0 0 1 .55 1.12.85.85 0 0 1 -.53.66 1.33 1.33 0 0 1 -1.27-.07.73.73 0 0 1 0-1.26 1.67 1.67 0 0 0 .24-.16.94.94 0 0 1 -.47-.84.86.86 0 0 1 .79-.84 2.05 2.05 0 0 1 .65.06.63.63 0 0 1 .53.55.73.73 0 0 1 -.49.78zm-1.12 1a.63.63 0 0 0 .76.63.51.51 0 0 0 .35-.77 1.56 1.56 0 0 0 -.72-.43.13.13 0 0 0 -.12.06c-.08.18-.15.36-.25.53zm1.12-1.62a1.65 1.65 0 0 0 -.16-.36.42.42 0 0 0 -.47-.18.4.4 0 0 0 -.37.32.38.38 0 0 0 .23.45c.09.05.18.12.27.16.28.13.42 0 .44-.27a.4.4 0 0 0 .06-.12z"/><path d="m645.36 64.44a.91.91 0 0 1 -1.4-.79 1.07 1.07 0 0 1 1.49-1.13.94.94 0 0 1 .57.76 2.82 2.82 0 0 1 -.07 1.65 1.17 1.17 0 0 1 -1.55.73.42.42 0 0 1 -.29-.41.25.25 0 0 1 .24-.25.41.41 0 0 1 .27.1c.07.06.09.18.15.25s.14.14.2.14a.34.34 0 0 0 .22-.13 1.53 1.53 0 0 0 .17-.92zm0-.86-.06-.59c0-.19-.11-.33-.29-.33a.34.34 0 0 0 -.31.35 7.22 7.22 0 0 0 0 .93.3.3 0 0 0 .35.31.34.34 0 0 0 .29-.37z"/><path d="m632.6 65.5c0 .22-.1.22-.26.19v-1c.14-.06.2 0 .25.13a1 1 0 0 0 .71.72.63.63 0 0 0 .64-.34.51.51 0 0 0 -.28-.6c-.3-.15-.62-.29-.91-.47a.92.92 0 0 1 -.37-1 1 1 0 0 1 .74-.65 1.33 1.33 0 0 1 .9.13.14.14 0 0 0 .11 0 2.5 2.5 0 0 0 .3-.14v.91h-.21c-.12-.28-.24-.56-.57-.63a.82.82 0 0 0 -.44 0 .34.34 0 0 0 -.06.63 6.63 6.63 0 0 0 .59.31c.36.17.74.32.85.77a1 1 0 0 1 -.81 1.29 1.53 1.53 0 0 1 -1.18-.25z"/><path d="m637.28 65.5v.18h-1.73c0-.09 0-.16.11-.2.33-.07.38-.14.39-.49q0-1 0-2c0-.15-.06-.24-.24-.24a.6.6 0 0 0 -.69.5c0 .15-.12.17-.25.13v-.91h3.07v.92h-.24c-.07-.28-.17-.55-.49-.62a1.08 1.08 0 0 0 -.36 0 .22.22 0 0 0 -.11.15v2.07c.05.38.26.49.54.51z"/><path d="m643.25 63.13c-.38 0-.73 0-1.08 0s-.29.25-.35.45h-.23l.27-1.34h.21c-.07.22 0 .27.21.27h1.46a1.7 1.7 0 0 1 -.08.37 8.89 8.89 0 0 0 -.66 2.12 2.5 2.5 0 0 1 -.09.49.37.37 0 1 1 -.69-.24 7.67 7.67 0 0 1 .38-.89c.16-.36.4-.8.65-1.23z"/><path d="m639.92 62.9c-.1-.25.16-.24.49-.28a1.05 1.05 0 0 0 .4-.16.4.4 0 0 1 .2 0v2.71c0 .18.06.3.26.3s.2.09.16.23h-1.51c-.08-.16.05-.22.16-.22s.25-.14.25-.3c0-.66 0-1.33 0-2 0-.18-.1-.26-.41-.28z"/><path d="m635.38 36.13v-.21l.1.07.22.15c0-.07.12-.15.13-.23s0-.36 0-.54a1 1 0 0 1 0-.17h.1v.9c0 .06-.14.12-.22.16s-.28-.12-.42 0l-.18-.3h-.21a.21.21 0 0 0 -.26.18c0 .05-.08.09-.12.14h-.06l.44-1.08a5.7 5.7 0 0 1 .48.93zm-.27-.29-.17-.4-.14.4z"/><path d="m645.89 39.8s-.1-.08-.1-.13c0-.31 0-.61 0-.92h.06a.7.7 0 0 1 .14.16c.09.2.17.41.27.64.29-.76.29-.76.45-.75v1h-.09v-.63h-.06l-.25.66c-.23-.15-.19-.44-.35-.64v.61z"/><path d="m633.93 36.26-.27-.64v.65h-.06c0-.05-.11-.09-.12-.14a5.93 5.93 0 0 1 0-1c.06.05.14.09.17.15l.35.72c.2-.25.16-.62.46-.84v1.13h-.11v-.65h-.06l-.25.65z"/><path d="m640.9 34.48v-.66s0 0 0 0l-.28.7h-.07l-.29-.71v.69h-.11v-1.06c.07.06.14.09.17.15s.16.4.26.64c.09-.24.16-.45.25-.64s.08-.08.13-.12a1.47 1.47 0 0 1 .06.14v.74.13z"/><path d="m638.8 37c.06.56 0 1-.09 1.07v-.68l-.27.66h-.06l-.27-.65v.6s-.07-.06-.07-.1c0-.3 0-.6 0-1 .29.19.26.51.43.74.11-.14.03-.51.33-.64z"/><path d="m638.16 35.35-.35-.06v-.08h.9c.06 0 .11.13.16.2l.15.23c.19-.1.17-.41.48-.47-.19.38-.52.65-.41 1.09h-.09a2.61 2.61 0 0 0 -.08-.5 2.8 2.8 0 0 0 -.3-.46h-.36v.92h-.09c0-.15 0-.29 0-.44s-.01-.27-.01-.43z"/><path d="m633.15 39.16a1.46 1.46 0 0 1 .07.41c0 .16-.17.21-.32.22h-.45v-1.06a2.55 2.55 0 0 1 .48 0 .34.34 0 0 1 .25.18.44.44 0 0 1 -.03.25zm-.59.51a1.31 1.31 0 0 0 .35 0c.08 0 .13-.12.2-.19s-.13-.16-.21-.18a1.26 1.26 0 0 0 -.34 0zm0-.51a1.6 1.6 0 0 0 .32 0c.07 0 .12-.09.18-.14s-.09-.14-.14-.15a2.17 2.17 0 0 0 -.36 0z"/><path d="m639.38 39.8c-.37 0-.32-.5-.67-.48v.44c-.13.07-.17 0-.17-.1v-.93a2.51 2.51 0 0 1 .55 0 .46.46 0 0 1 .24.27c0 .08-.1.19-.16.28s0 0-.08.06zm-.67-.57.46-.11s0-.17 0-.19a3.83 3.83 0 0 0 -.43-.11z"/><path d="m632.71 33.92a2.25 2.25 0 0 1 .06.36c0 .18-.16.21-.29.22a3.49 3.49 0 0 1 -.46 0v-1.06c.24 0 .51-.11.68.15.06.08.01.22.01.33zm-.58 0v.47a3.36 3.36 0 0 0 .48-.14.09.09 0 0 0 0-.18 3.92 3.92 0 0 0 -.48-.07zm0-.09c.43 0 .47 0 .45-.26h-.45z"/><path d="m636.69 39.21.12.19.11-.12h.08a.7.7 0 0 0 0 .25c0 .07.1.13.15.21h-.05c-.17-.11-.34 0-.51 0a.37.37 0 0 1 -.26-.17.46.46 0 0 1 .05-.34c0-.09.15-.13.1-.27a.21.21 0 0 1 .35-.21.56.56 0 0 1 0 .29s-.1.12-.14.17zm-.14 0c-.13.11-.25.21-.11.36s.23.07.32-.06z"/><path d="m642.22 33.75v.76-1.1c.27.2.35.53.61.76 0-.22 0-.41 0-.59s.06-.1.09-.15h.06v1.1a.62.62 0 0 1 -.19-.12c-.13-.18-.26-.37-.4-.55l-.12-.17z"/><path d="m641.06 40.49a.55.55 0 0 1 .14.12c.15.19.28.4.47.6v-.72h.11v1.08c-.28-.18-.35-.52-.61-.75v.6s-.06.1-.1.14v-1z"/><path d="m639 34.18c0-.25 0-.48 0-.71h.08v1.08c-.28-.21-.36-.54-.62-.75v.57s-.07.1-.1.15v-1c.37.06.42.48.64.66z"/><path d="m633 36.29c-.05 0-.12-.06-.16-.11s-.12-.19-.2-.27a1.27 1.27 0 0 0 -.23-.16l-.05.52h-.08v-1.07a1.6 1.6 0 0 1 .49 0 .45.45 0 0 1 .25.27c0 .17-.08.27-.25.33l.28.42zm-.61-.58.46-.11a.25.25 0 0 0 0-.17 4.21 4.21 0 0 0 -.46-.14z"/><path d="m643.13 35.72c0-.32.12-.5.36-.52a.5.5 0 0 1 .52.66c0 .11-.09.2 0 .29a0 0 0 0 1 0 .07.11.11 0 0 1 -.08 0 1.85 1.85 0 0 0 -.24 0c-.25.1-.62.01-.56-.5zm.73 0a.32.32 0 0 0 0-.14c0-.16-.11-.3-.31-.29s-.26.15-.29.31a.57.57 0 0 0 0 .13c0 .23.12.38.3.39s.3-.12.3-.37z"/><path d="m637.55 37.57.29.43a1 1 0 0 1 -.18-.08c-.07-.08-.12-.19-.2-.27a1.73 1.73 0 0 0 -.21-.17h-.06v.49a1.76 1.76 0 0 1 -.08-1.08 3.38 3.38 0 0 1 .45 0c.13 0 .28 0 .29.22s-.07.42-.3.46zm-.39-.13a1 1 0 0 0 .31 0c.08 0 .13-.09.2-.15s-.1-.16-.16-.18a1.42 1.42 0 0 0 -.36 0v.2a.92.92 0 0 0 .01.13z"/><path d="m631.18 39v.73c-.13-.05-.18-.58-.1-1.07.3.2.38.54.63.78.07-.25 0-.52.06-.76h.07v1.08a1.17 1.17 0 0 1 -.19-.14c-.19-.15-.33-.37-.47-.62z"/><path d="m638.71 41.28v-.79c.12.09.15.53.09 1.09a.92.92 0 0 1 -.2-.17c-.14-.19-.27-.39-.4-.59h-.05a2.38 2.38 0 0 1 0 .38c0 .12.06.25-.09.34v-1.06c.29.19.37.52.65.8z"/><path d="m647.59 35.91v-.71h.11v1.1l-.87-.84v.81h.11v-1.07c.29.18.38.51.6.74z"/><path d="m643.21 38.68c.31.21.4.57.64.81.07-.26 0-.53.06-.77h.09v1.08c-.3-.21-.38-.56-.65-.82v.8h-.11z"/><path d="m639.86 38.73c.3-.06.45.26.46.53a.46.46 0 0 1 -.43.53.46.46 0 0 1 -.49-.53c.02-.26.13-.58.46-.53zm-.34.58a1.31 1.31 0 0 0 .24.34s.21 0 .29-.07a.53.53 0 0 0 .05-.61.28.28 0 0 0 -.48 0 1.31 1.31 0 0 0 -.1.34z"/><path d="m645.55 34.51a.54.54 0 0 1 0-1.07c.31 0 .45.23.46.54s-.18.58-.46.53zm-.34-.53a1.48 1.48 0 0 0 .25.35c.06 0 .22 0 .3-.08a.53.53 0 0 0 0-.59.28.28 0 0 0 -.5 0 1.11 1.11 0 0 0 -.05.34z"/><path d="m639.91 41c0-.4.18-.54.55-.52s.31.22.37.4a.63.63 0 0 1 -.24.64.48.48 0 0 1 -.51-.09 2.26 2.26 0 0 1 -.17-.43zm.16 0c0 .25.12.42.29.42a.39.39 0 0 0 .35-.4c0-.21-.16-.42-.33-.42s-.31.17-.31.4z"/><path d="m637.79 41c0 .39-.14.55-.51.53a.39.39 0 0 1 -.37-.38.92.92 0 0 1 0-.37c.08-.28.2-.35.51-.31a.42.42 0 0 1 .34.42zm-.12 0c0-.23-.13-.41-.31-.41s-.34.17-.34.41a.38.38 0 0 0 .33.41c.19.02.32-.15.32-.41z"/><path d="m628.91 39.26c0-.4.14-.55.51-.53a.44.44 0 0 1 .24.11.69.69 0 0 1 0 .85.5.5 0 0 1 -.48.09c-.18 0-.23-.21-.27-.37a.75.75 0 0 1 0-.15zm.12 0c0 .24.12.4.3.4a.4.4 0 0 0 .35-.41.4.4 0 0 0 -.33-.41c-.19.01-.35.16-.35.43z"/><path d="m648.91 38.73c.27 0 .58-.1.74.2a.67.67 0 0 1 0 .68c-.17.27-.45.16-.71.18zm.11.94c.2 0 .38 0 .5-.17a.5.5 0 0 0 0-.54c-.11-.16-.29-.12-.47-.1z"/><path d="m636.94 34c0-.32.13-.51.37-.52a.51.51 0 0 1 .51.68c-.06.19-.13.37-.37.39s-.51-.17-.51-.55zm.12 0c0 .26.12.43.31.43a.43.43 0 0 0 .34-.44.4.4 0 0 0 -.34-.39c-.18-.04-.3.12-.31.4z"/><path d="m639 40.49c.26 0 .53-.08.71.18a.6.6 0 0 1 0 .68c-.16.27-.44.21-.71.2zm.11.92a.4.4 0 0 0 .5-.17.45.45 0 0 0 0-.51.39.39 0 0 0 -.46-.1z"/><path d="m641.38 39.79a1.42 1.42 0 0 1 0-.19v-.87c.27 0 .57-.09.73.17a.65.65 0 0 1 0 .71c-.19.27-.47.16-.73.18zm.07-.12c.21 0 .43 0 .5-.17a.77.77 0 0 0 0-.52c-.08-.18-.29-.15-.47-.11z"/><path d="m637.06 35.94c.44.25.44.25.64 0a2.39 2.39 0 0 0 -.37-.17c-.19 0-.29-.14-.26-.34s.17-.22.33-.22.32.06.4.31l-.18-.08c-.06 0-.12-.1-.17-.1a.8.8 0 0 0 -.25.11 1.14 1.14 0 0 0 .19.19.87.87 0 0 0 .19 0 .27.27 0 0 1 .21.35c0 .2-.23.29-.53.24a.24.24 0 0 1 -.2-.29z"/><path d="m646.06 35.18h.68l-.68.16v.28h.58a.58.58 0 0 0 0 .15h-.48v.33h.52s0 0 0 .1h-.62z"/><path d="m640.79 36.25v-1c.15 0 .15 0 .2.5h.54c0-.22 0-.38 0-.53h.11v1.08c-.21-.15-.08-.33-.15-.46h-.49c-.08.12 0 .33-.09.44z"/><path d="m643.55 37.2a2.13 2.13 0 0 0 -.33-.11s-.13.07-.13.1a.2.2 0 0 0 .09.16c.08 0 .19 0 .25.09s.22.17.23.27-.08.22-.17.28a.41.41 0 0 1 -.58-.15.2.2 0 0 1 .06-.16c.07.2.2.27.37.22a.22.22 0 0 0 .16-.15s-.06-.13-.11-.16a2.52 2.52 0 0 1 -.29-.12.49.49 0 0 1 -.17-.28.22.22 0 0 1 .27-.22 1.11 1.11 0 0 1 .36.08s0 .12.05.19z"/><path d="m642 35.35v.31h.48v.08h-.36v.33h.46a.54.54 0 0 0 0 .11h-.78v-1h.84a1.53 1.53 0 0 1 -.64.17z"/><path d="m641.26 37.68.09.12a.28.28 0 0 0 .39.07c.13-.07.12-.2 0-.27a1.12 1.12 0 0 0 -.26-.08.28.28 0 0 1 -.23-.33c0-.17.14-.21.28-.22s.25 0 .43.25a.9.9 0 0 1 -.16 0c-.07 0-.13-.1-.19-.1a.7.7 0 0 0 -.23.11 1.14 1.14 0 0 0 .19.19c.07 0 .17 0 .25.09a.31.31 0 0 1 .07.48.61.61 0 0 1 -.6 0 .85.85 0 0 1 -.09-.24z"/><path d="m645.07 36.25v-1h.73c-.14.17-.34.06-.51.12v.32h.44-.2-.24v.36h.54c-.06.23-.23.25-.76.2z"/><path d="m648 39.78v-1h.71s0 0 0 0h-.61v.32h.52v.08h-.42v.33h.5v.09z"/><path d="m636.81 35.78h-.41v.35h.5c-.08.12-.26.14-.72.09v-1h.7s0 0 0 0h-.6v.32h.51z"/><path d="m636.07 34.53v-1.09a5.56 5.56 0 0 1 .58 0c.17 0 .23.15.23.32s-.11.24-.25.26a2 2 0 0 1 -.35 0c-.13.15.07.4-.21.51zm.11-.56.5-.17s0-.14 0-.14a3.22 3.22 0 0 0 -.47-.13z"/><path d="m634.36 37.56v.36s0 .07-.07.11-.08-.07-.08-.11c0-.31 0-.61 0-1a4 4 0 0 1 .6 0c.17 0 .22.15.21.31a.27.27 0 0 1 -.25.27zm0-.12a1.18 1.18 0 0 0 .33 0 .3.3 0 0 0 .17-.18s-.1-.14-.16-.16a1.93 1.93 0 0 0 -.34 0z"/><path d="m636 38 .44-1.06h.08l.41 1c-.14 0-.15 0-.2-.09s-.06-.19-.19-.17-.29-.06-.35.15c0 .06-.08.11-.12.17zm.32-.41h.3l-.16-.4z"/><path d="m633.44 39.19h.57v.09h-.46v.34h.55v.11h-.66v-1.04h.61v.11h-.62z"/><path d="m631.36 35.18h.64v.12h-.63v.32h.59-.48v.4c.17.09.39-.07.59.14h-.7z"/><path d="m641.92 33.53h-.58v.47h.45c-.13.12-.31 0-.46.07v.31h.53v.07h-.64v-1.1h.68a.63.63 0 0 0 .02.18z"/><path d="m642.33 38.8h.7s0 0 0 0h-.6v.38h.57v.06h-.44v.34h.54c-.08.14-.16.15-.76.11z"/><path d="m634.64 33.43.41 1s-.13 0-.14-.09c0-.26-.23-.22-.4-.21h-.08l-.17.32-.1-.05.42-1zm.1.65-.14-.41-.16.41z"/><path d="m635.2 33.44h.46a.29.29 0 0 1 .32.33c0 .18-.11.26-.33.26h-.34v.48h-.07zm.11.51a4.61 4.61 0 0 0 .5-.12s0-.18 0-.19a3.56 3.56 0 0 0 -.47-.1z"/><path d="m639.83 38s-.11 0-.12-.06c-.05-.33-.29-.25-.5-.24l-.18.32-.09-.05.43-1.06h.08l.42 1zm-.59-.45h.32l-.15-.39z"/><path d="m635.31 37v.53h.5c0-.21 0-.36 0-.52h.19v1c-.1 0-.11-.06-.17-.42h-.53v.45c-.2-.11-.2-.97.01-1.04z"/><path d="m630.38 35.2v.53h.62c0-.22 0-.38 0-.53v1.1c-.14-.15 0-.34-.09-.46h-.57v.43a1.51 1.51 0 0 1 .04-1.07z"/><path d="m630.69 39.8c0-.16 0-.45 0-.45h-.5v.43h-.12c0-.06 0-.12 0-.17a1.37 1.37 0 0 1 .17-.91v.52h.5c0-.21 0-.37.05-.52h.11v1.06z"/><path d="m640.65 37.3c-.08-.16-.2-.27-.39-.2a.36.36 0 0 0 -.22.41.35.35 0 0 0 .23.39.25.25 0 0 0 .35-.2c.16.09.16.1.08.2a.41.41 0 0 1 -.5.11.52.52 0 0 1 -.28-.33.83.83 0 0 1 .05-.49.45.45 0 0 1 .73-.09s0 .12 0 .19z"/><path d="m638.39 39.48v.19a.5.5 0 0 1 -.63 0 .8.8 0 0 1 -.1-.76.46.46 0 0 1 .53-.21.5.5 0 0 1 .23.18s0 .1 0 .15a.32.32 0 0 0 -.42-.2.38.38 0 0 0 -.22.42.37.37 0 0 0 .23.39.28.28 0 0 0 .37-.2z"/><path d="m644.92 35.21v.83s-.19.24-.37.23-.38-.1-.39-.27 0-.53 0-.79h.06s.06.08.06.12v.49c0 .23.09.35.27.35s.25-.07.25-.33 0-.32 0-.47a.8.8 0 0 1 0-.15z"/><path d="m632.94 33.41.33.46c.2-.08.17-.4.48-.44-.07.12-.11.21-.16.28a.83.83 0 0 0 -.23.65s-.05.11-.13.16c.09-.44-.22-.72-.38-1.05z"/><path d="m640.81 39.17c.19-.11.15-.44.49-.44a3 3 0 0 0 -.35.53c-.07.16-.07.36-.14.54.05-.44-.27-.71-.46-1.08.32.04.3.34.46.45z"/><path d="m635.79 26.19s0 .06 0 .06l-.54.11c-.19-.17.06-.35.12-.59l-.26.09v-.14l.58-.14-.24.57.3-.15.12.15z"/><path d="m645 33.55h-.28c0 .31 0 .62-.06.93h-.12v-.92l-.31-.06c.22-.11.69-.07.77.05z"/><path d="m640.29 35.34h-.34a1 1 0 0 1 .85 0l-.34.05v.9h-.07c0-.05-.09-.09-.1-.14z"/><path d="m643.36 33.55h-.3v-.08h.75v.08h-.31v.9c-.16 0-.16 0-.17-.12z"/><path d="m634.43 39.67h.57v.11h-.64v-1s0 0 0 0 .09.1.09.15v.6z"/><path d="m635.21 39.68h.52v.07h-.68v-.93s.06-.07.09-.11.07.09.07.13c.01.29 0 .55 0 .84z"/><path d="m636.29 41.4c.19.08.39 0 .57.14h-.73c0-.32 0-.63 0-.95 0 0 .06-.08.1-.12z"/><path d="m635.52 27-.09-.13s0-.1 0-.14.06-.25.13-.3.22 0 .33 0 .09.06.14.1c.08.29.06.4-.14.47s-.26 0-.37 0zm.16 0c.11-.11.21-.16.22-.23a.18.18 0 0 0 -.18-.23.3.3 0 0 0 -.19.19c-.02.05.08.13.15.27z"/><path d="m639.59 33.59c-.14-.07-.29 0-.33-.17h.79c-.09.22-.24.1-.35.18v.91h-.11z"/><path d="m647.89 38.85h-.3v.93h-.07c-.11-.12 0-.29 0-.43s0-.33 0-.5h-.35v-.08z"/><path d="m642.34 38.08c0-.14 0-.29 0-.43s0-.33 0-.49l-.34-.06v-.11h.75v.07h-.3v.91z"/><path d="m628.21 39.42c0 .07 0 .13.07.15s.14.1.19.09a.25.25 0 0 0 .13-.17c0-.2 0-.4 0-.6a.53.53 0 0 1 0-.17h.07a8.61 8.61 0 0 1 0 .88c0 .18-.25.24-.45.16s-.13-.12-.01-.34z"/><path d="m644.63 38.73v.94h.73v.11h-.62v-1.05z"/><path d="m638.1 34.53c0-.05-.09-.09-.09-.14q0-.42 0-.84s.06-.08.1-.13v1z"/><path d="m641 38a1.9 1.9 0 0 1 -.07-1.06 1.78 1.78 0 0 1 .07 1.06z"/><path d="m645.58 38.72a2.34 2.34 0 0 1 0 1.07 1.91 1.91 0 0 1 0-1.07z"/><path d="m646.94 39.8v-1.11a1.69 1.69 0 0 1 0 1.11z"/><path d="m634.93 25.28.53-.08v.16l-.53.08z"/><path d="m645.11 31.13v.28a1.48 1.48 0 0 1 -.17-.08 1.2 1.2 0 0 1 .11-.23z"/><path d="m644.89 31-.11.32-.21-.29h.32z"/><path d="m634.87 24.47.35-.09c-.06 0-.1.14-.17.15s-.05-.01-.18-.06z"/><path d="m636.29 27-.09.26.17.19.15-.18.13.11-.36.47v-.28a.41.41 0 0 0 -.18-.19s-.07.09-.11.13l-.17-.14.21-.19.2-.21.1.06z"/><path d="m641.54 27.46-.44-.37.63-.12c-.11-.06-.18-.14-.25-.15s-.05-.09-.08-.13h.08l.52.31-.52.25a.53.53 0 0 1 .15.05.16.16 0 0 1 .07.07z"/><path d="m642.14 26.73-.23-.12c.24-.06.27-.1.14-.27v.18l-.16-.11.07-.14c-.19 0-.2.06-.14.33l-.17-.15.2-.4.53.26z"/><path d="m640.34 28.31-.18-.15c.14 0 .28.08.36-.16l-.19.08c0-.06-.19-.13 0-.2 0 0 0-.06 0-.09s-.1 0-.11 0a1.56 1.56 0 0 0 -.16.2c-.13-.14-.13-.15.32-.36l.26.47-.18.15z"/><path d="m642.31 17.58a.14.14 0 0 1 0-.09c0-.1.07-.21-.13-.23.35 0 .36 0 .4.11z"/><path d="m636 29.48a.89.89 0 0 1 0 .14v.17s-.11 0-.17 0c-.12-.19.06-.23.17-.31z"/><path d="m634.27 19.26a.76.76 0 0 0 0 .15c0 .07 0 .14.05.23h-.06c0-.07-.1-.13-.14-.2s-.01-.21.15-.18z"/><path d="m640.76 18.72h.24l-.09.28-.12-.08z"/><path d="m634 31.5v-.6a1.58 1.58 0 0 1 .41.17.33.33 0 0 1 0 .29 1.81 1.81 0 0 1 -.41.14z"/><path d="m635.68 31.42v-.41h.16v.52c-.15 0-.34 0-.41-.09s0-.27 0-.43h.17v.23s0 .13.05.2z"/><path d="m636.85 31.44h-.34v-.44h.31c0 .1-.26.06-.06.2v.07s0 .13.08.13z"/><path d="m635 30.93.29.06v.06h-.12c0 .09.13.17 0 .24l.2.13h-.37z"/><path d="m637.15 31.45c-.1-.14.08-.33-.15-.4 0 0 .06-.09.09-.1h.29l-.14.5z"/><path d="m634.76 31.45h-.22v-.45h.22z"/><path d="m640.22 31.48-.16-.18-.07.15-.19-.22v.22h-.11v-.49c.18-.09.18.1.23.17l.18-.21h.05l.08.48z"/><path d="m641.78 31c.37 0 .46 0 .46.23s-.13.29-.46.26z"/><path d="m640.93 31.22a.27.27 0 0 1 -.3.28.28.28 0 1 1 0-.55.3.3 0 0 1 .3.27zm-.28-.22c-.07.1-.15.16-.14.2a.85.85 0 0 0 .14.21c0-.06.11-.1.11-.16a.78.78 0 0 0 -.11-.25z"/><path d="m643.09 31.5a.33.33 0 0 1 -.3-.28c0-.12.19-.31.3-.26a.59.59 0 0 1 .28.26c.05.12-.14.28-.28.28zm.17-.26-.2-.17c0 .05-.11.12-.1.15a.62.62 0 0 0 .14.19z"/><path d="m642.33 31.54v-.54a1.13 1.13 0 0 1 .26 0s.12.12.11.13 0 .22 0 .37l-.24-.06z"/><path d="m641.07 31.23v.26h-.07v-.48c.1 0 .1 0 .33.18v-.19s0 0 0 0c.17.13 0 .32.09.47h-.05z"/><path d="m644 31a3 3 0 0 1 0 .37.82.82 0 0 1 -.14.2c-.07-.21.07-.4-.19-.54z"/><path d="m643.43 31.01h.22v.44h-.22z"/><path d="m636.54 25.55c.08-.1 0-.19-.14-.24l.16-.31a.3.3 0 0 1 .47-.07.57.57 0 0 0 .73.09c.43-.21.74 0 .8.46a2.33 2.33 0 0 1 -.08.38c0 .45-.08.89-.12 1.4l-.68.12c.15-.21.08-.26-.13-.33a1.24 1.24 0 0 1 -.79-1 2.18 2.18 0 0 0 -.22-.5zm1-.2-.22-.08.41.44-.47-.37.76.82c-.12-.13-.24-.26-.35-.4l.36.29-.59-.62.59.5v-.05l-.56-.51zm-.42.59c0 .48.17.7.55.85h.21s0-.14-.06-.18zm1.13-.68c-.17-.17-.26-.17-.58 0l.5.43zm-1.08.52h-.06l.8.77.05-.05zm0-.18a2.13 2.13 0 0 0 .87.8zm.06-.1.82.75z"/><path d="m642.34 19 .15-.2.11.33c-.08-.06-.26.08-.26-.13z"/><path d="m637.94 28.5c-.06-.09-.13-.15-.13-.21s.09-.12.14-.12a.21.21 0 0 1 .12.14c0 .05-.07.1-.13.19z"/><path d="m638.68 28.42.14.18c-.05 0-.1.1-.15.1s-.09-.07-.14-.11z"/><path d="m639.6 28.9c-.08.06-.14.15-.17.14s-.1-.1-.15-.15a.88.88 0 0 1 .17-.12s.08.07.15.13z"/><path d="m638.8 29.3c.05.09.11.14.1.18s-.07.11-.1.17-.13-.09-.13-.12a.61.61 0 0 1 .13-.23z"/><path d="m633.12 21.86-.09-.22c.15 0 .17.08.15.35 0 0-.09 0-.11 0l-.24-.22s.11 0 .15 0 .06.07.09.11z"/><path d="m632.21 31.42s0 0 0-.06l.09-.19.21.14v.06l-.29.05z"/><path d="m632.77 31a.09.09 0 0 1 0 .05c0 .07-.09.14-.14.21l-.14-.21h.29z"/><path d="m637.15 25.6.87.8"/><path d="m796.89 45.73a5.84 5.84 0 0 1 -4.28 1.49 5.92 5.92 0 0 1 -4.3-1.49 6 6 0 0 1 -1.85-4.34 5.75 5.75 0 0 1 6.25-5.88 5.83 5.83 0 0 1 4.2 1.5 5.93 5.93 0 0 1 1.85 4.36 6 6 0 0 1 -1.87 4.36zm-4.36-8.55a3.94 3.94 0 0 0 -4.08 4.17 4.15 4.15 0 1 0 8.29 0 4 4 0 0 0 -4.21-4.19zm-44-1.45h-2.63l-3.64 6.42-3.89-6.42h-2.47v11.27h1.71v-9l4.55 7.69 4.46-7.69v9h2v-11.27zm11.47 6.27a2.74 2.74 0 0 0 2.5-3 3 3 0 0 0 -1.37-2.78c-.72-.39-1.46-.48-3.56-.48h-5.06v11.26h2v-4.85h3.46l2.87 4.85h2.16zm-1.63-1.44h-3.93v-3.2h3.93a3.1 3.1 0 0 1 1.81.31 1.43 1.43 0 0 1 .6 1.27 1.45 1.45 0 0 1 -.6 1.26 3.37 3.37 0 0 1 -1.81.31zm23.83-4.24a5.23 5.23 0 0 0 -3-.56h-5.5v11.24h1.95v-4.82h3.58a4.64 4.64 0 0 0 2.93-.58 3 3 0 0 0 1.33-2.66 3.16 3.16 0 0 0 -1.29-2.67zm-2.92 4.26h-3.63v-3.22h3.63a3.54 3.54 0 0 1 2 .33 1.44 1.44 0 0 1 .55 1.26c0 1.19-.63 1.58-2.5 1.58zm30.41 1.42a2.73 2.73 0 0 0 2.49-3 3 3 0 0 0 -1.36-2.78c-.72-.39-1.46-.48-3.56-.48h-5.06v11.26h1.93v-4.85h3.46l2.92 4.85h2.18zm-1.61-1.44h-3.93v-3.2h3.93a3.1 3.1 0 0 1 1.81.31 1.43 1.43 0 0 1 .6 1.27 1.45 1.45 0 0 1 -.6 1.26 3.37 3.37 0 0 1 -1.81.31zm7.06-4.8v1.65h4.28v9.59h2v-9.64h4.28v-1.65zm15.92 9.61v-3.32h4.94v-1.66h-4.94v-3h7.14v-1.68h-9.09v11.29h9.53v-1.68zm18.56-3.37a2.74 2.74 0 0 0 2.49-3 3 3 0 0 0 -1.37-2.78c-.72-.39-1.46-.48-3.56-.48h-5.06v11.26h2v-4.85h3.46l2.87 4.85h2.18l-3-5zm-1.62-1.49h-3.93v-3.15h3.93a3.1 3.1 0 0 1 1.81.31 1.43 1.43 0 0 1 .6 1.27 1.45 1.45 0 0 1 -.6 1.26 3.32 3.32 0 0 1 -1.81.31z"/><path d="m908.19 26.27v-5.6h1.54v13.79h-1.54v-6.77h-7.06v6.77h-1.53v-13.79h1.53v5.6z"/><path d="m924.19 23.6-2.36 5.52h4.67zm-3 7-1.66 3.91h-1.68l6.38-14.51 6.2 14.45h-1.7l-1.63-3.91z"/><path d="m940.12 27.05h.48c1.74 0 3.49-.33 3.49-2.47s-1.66-2.48-3.51-2.48h-.46zm0 7.41h-1.53v-13.79h2c2.61 0 5 .7 5 3.81a3.6 3.6 0 0 1 -3.46 3.8l4.39 6.18h-1.88l-4.17-6.05h-.39v6.05"/><path d="m960.38 31.19 3.93-10.52h1.69l-5.59 14.62-5.6-14.62h1.66z"/><path d="m974 20.67h7.15v1.43h-5.62v4.09h5.45v1.43h-5.45v5.38h5.62v1.42h-7.15z"/><path d="m989.49 20.67h1.77l3.51 6.15 3.51-6.15h1.78l-4.52 7.87v5.92h-1.54v-5.92z"/><path d="m899.36 42.69 11 11.51v-10.91h1.57v14.71l-11-11.49v10.87h-1.57z"/><path d="m920.2 57.38h-1.57v-14.09h1.57z"/><path d="m937.54 46.37a6 6 0 0 0 -4.3-1.87 5.83 5.83 0 0 0 0 11.66 6.17 6.17 0 0 0 4.26-1.87v2a7.23 7.23 0 0 1 -4.2 1.38 7.29 7.29 0 1 1 0-14.58 6.76 6.76 0 0 1 4.2 1.39v1.94"/><path d="m952.79 49v-5.71h1.57v14.09h-1.57v-6.92h-7.21v6.92h-1.58v-14.09h1.57v5.71z"/><path d="m961.87 50.33a5.78 5.78 0 1 0 5.78-5.83 5.83 5.83 0 0 0 -5.78 5.83m13.12 0a7.35 7.35 0 1 1 -7.34-7.33 7.3 7.3 0 0 1 7.35 7.35"/><path d="m982.43 55.92h3.89v1.46h-5.46v-14.09h1.57z"/><path d="m998 46a2.59 2.59 0 0 0 -2.43-1.53 2.24 2.24 0 0 0 -2.34 2.19c0 1.21 1.25 1.77 2.21 2.2l.93.41c1.83.81 3.38 1.72 3.38 4a4.45 4.45 0 0 1 -8.82.72l1.53-.43a2.91 2.91 0 0 0 2.83 2.61 2.83 2.83 0 0 0 2.89-2.75c0-1.64-1.29-2.2-2.59-2.8l-.86-.37c-1.65-.75-3.07-1.59-3.07-3.61a3.7 3.7 0 0 1 3.94-3.64 4.06 4.06 0 0 1 3.65 2.19z"/><path d="m1099.58 31.11 8.73-17.22h2.89l-4 8.17a6.17 6.17 0 0 1 3.13-1.48 2.16 2.16 0 0 1 2.51 1 2.4 2.4 0 0 1 -.19 2.14 4.73 4.73 0 0 1 -1.55 1.54 17.75 17.75 0 0 1 -4.28 2.37 2.8 2.8 0 0 1 .44.88 6.47 6.47 0 0 1 3.71-.38 23.78 23.78 0 0 1 3.11-4.89 9.61 9.61 0 0 1 5.2-3.22 8.84 8.84 0 0 1 3-.19 7.46 7.46 0 0 0 -2.65 2.76 12 12 0 0 0 -.92 3.32c-.2 1.62-.23 3.78-1.14 5l1.27.83a17.53 17.53 0 0 1 2.6-1.09 5 5 0 0 1 1.84-.14 2.88 2.88 0 0 1 2.25 1.42 1.43 1.43 0 0 1 -.2 1.57 2.71 2.71 0 0 1 -2 .73 10 10 0 0 1 -1.72-.09 6.53 6.53 0 0 1 -1.48-.47 11 11 0 0 0 -4.13 5.33h1.52l-.34.73h-1.42c-.81 1.41-2.3 4.51-2.75 5.28a13.7 13.7 0 0 1 -2.9 3.46 10.22 10.22 0 0 1 -5 2c-2.88.34-6.93-.4-8.57-3a17.23 17.23 0 0 0 -3.77 4.23 26 26 0 0 0 -3.22 7.12h4l1.57-3.3 2.39-.14-4.17 9.6c-.37.87-.19 1.56.4 1.86a1.88 1.88 0 0 0 1.66.11 6.44 6.44 0 0 0 2.33-1.72 10.23 10.23 0 0 0 2.28-4.68 7 7 0 0 1 -1.28-2.86 4.28 4.28 0 0 1 .06-1.6c.29-1 1-1.56 1.66-1.51s1.14.52 1.27 1.52a6.76 6.76 0 0 1 -.22 2.65 6 6 0 0 0 .81.39c.59-.82 2.31-3.18 3.77-3.93a3.53 3.53 0 0 1 3.72-.09c1.15.89.78 2.54-.44 3.79a6.24 6.24 0 0 1 -2.54 1.72 6.83 6.83 0 0 1 -2.93.15 6.75 6.75 0 0 0 -.81 2.51c-.15 1.53.33 3 1.37 3.17 1.31.25 3.29-1.38 3.81-2.23l4.63-9h2.85l-.31.63a5.94 5.94 0 0 1 3.88-1.18 1.32 1.32 0 0 1 1 2l-4.15 8.95c-.72 1.56 1.5 2.37 2.52.25l5.16-10.71h2.57l-4.55 9.61a1.45 1.45 0 0 0 1 2.1 2.34 2.34 0 0 0 2.74-1.42l4.77-10.14h3l-4.93 10.39a1.17 1.17 0 0 0 .93 1.62c1.59.17 2.41-.69 3.4-1.61a6 6 0 0 1 .32-4.91 10.72 10.72 0 0 1 6.8-6.05 2.61 2.61 0 0 1 2.51.46 2.28 2.28 0 0 1 .73 2.23 3.9 3.9 0 0 1 -1.7 2.09 16.54 16.54 0 0 1 -5.37 1.94 8.42 8.42 0 0 0 -.93 3.16 2.75 2.75 0 0 0 .36 1.61 1.69 1.69 0 0 0 2.17.36 4.5 4.5 0 0 0 2.13-2l.57.23a7.86 7.86 0 0 1 -2.2 2.31c-2 1.2-4.23.77-5.08-.78a4.87 4.87 0 0 1 -4.17 1.76 3.19 3.19 0 0 1 -2.83-1.62 4.52 4.52 0 0 1 -4.34 1.27 2.31 2.31 0 0 1 -1.8-1.8 3.93 3.93 0 0 1 -1.79 2 4 4 0 0 1 -2.74.06 2 2 0 0 1 -1-2.8l3.81-8.26c.53-1.16 0-1.68-1.34-1.13a8.63 8.63 0 0 0 -2.82 2.22l-4.74 9.71h-2.65l.71-1.43a5.16 5.16 0 0 1 -2.7 1.45 3.17 3.17 0 0 1 -3.71-1.71c-.83-1.92.22-4.85.66-6.06l-.47-.17c-.19.67-.46 1.49-.59 1.92a9.84 9.84 0 0 1 -2.43 4.25 6.65 6.65 0 0 1 -2.68 1.92 3.6 3.6 0 0 1 -3.11-.32 3.12 3.12 0 0 1 -1-3.79l1.79-4.29h-3.77a11.21 11.21 0 0 0 .17 7.24 5.82 5.82 0 0 0 3.49 3.42 3.86 3.86 0 0 0 2.7 0 2.91 2.91 0 0 0 1.84-2.14l.76-.07a4 4 0 0 1 -1.74 3 5.16 5.16 0 0 1 -3.3.76 8 8 0 0 1 -6.55-4.39 12.68 12.68 0 0 1 -.86-7.9h-5c-1.19 2.57-3.77 7.19-6.59 9.41a10.4 10.4 0 0 1 -6.58 2 8 8 0 0 1 -7.36-4.94 11.24 11.24 0 0 1 10.65-14.56 7.63 7.63 0 0 1 6.19 2.87 6.28 6.28 0 0 1 .8 4.22 8.27 8.27 0 0 1 -1.8 3.87 7.79 7.79 0 0 1 -4.92 2.72 7.26 7.26 0 0 1 -2.61-.25v-.74a10.18 10.18 0 0 0 2.67.11 7.21 7.21 0 0 0 4.39-2.8 7.48 7.48 0 0 0 1.33-4.31 4.59 4.59 0 0 0 -1.89-3.46 8.29 8.29 0 0 0 -5.44-1.26 10.28 10.28 0 0 0 -5.42 2.65 11.13 11.13 0 0 0 -3.31 5.42 10 10 0 0 0 .32 5.16c1.07 2.75 3.58 4.94 8.36 4.39a9.27 9.27 0 0 0 5-2.53c1.85-1.71 3.65-4.94 4.94-7.52a49.35 49.35 0 0 1 3-5.66 21.7 21.7 0 0 1 4.55-5.16 26.59 26.59 0 0 1 3.68-2.49 15.65 15.65 0 0 1 4.61-1.66 5.56 5.56 0 0 1 1-3.46 12.66 12.66 0 0 1 4-3.49l.45.57a10.69 10.69 0 0 0 -3.75 3.41 5 5 0 0 0 -.85 2.77 22.22 22.22 0 0 1 3.22-.09c-.55.5-1.73 1.64-2.31 2.24 1.86 2.64 5.38 2.77 8 2s4-2.26 5.09-5.07c.42-1.17 1.1-2.68 1.7-4.09h-2.4l.4-.74h2.21a15.85 15.85 0 0 1 2.4-3.83 15.62 15.62 0 0 1 3.5-2.92l-.9-.45a6.64 6.64 0 0 1 -1.89 1.69 5 5 0 0 1 -2.36.64 2.66 2.66 0 0 1 -2.72-2 6.53 6.53 0 0 1 -1.15 1.52 1.92 1.92 0 0 1 -2 .43c-1.13-.44-1.48-2.08-1.75-3.53a8.34 8.34 0 0 0 -1.62 1.63 5.32 5.32 0 0 0 -1.26 3.17 4 4 0 0 0 1.14 2.84 3.45 3.45 0 0 0 3.14.79c2-.41 3.45-1.94 4.48-3l.62.38a18.2 18.2 0 0 1 -2.76 2.57 6.19 6.19 0 0 1 -2.19.87 4.89 4.89 0 0 1 -3.32-.47 4.7 4.7 0 0 1 -1.67-5.58 9.17 9.17 0 0 1 3.34-4.21 3.27 3.27 0 0 0 -.33-1.31 1.55 1.55 0 0 0 -.61-.58l-3.09 6.28h-3l.46-.93c-1.14.77-2.94 1.39-4.22.52a1.7 1.7 0 0 1 -.6-1.61 8.12 8.12 0 0 1 -2.67 2.18 3.41 3.41 0 0 1 -2.5.16c-1-.43-1.48-1.54-1.36-3.12.21-2.78 3-6.49 4.34-7.6a13.84 13.84 0 0 1 2.47-1.73c2.33-1.16 3.79-.59 4 .82l.7-1.35h2.59l-4.7 10.51a.93.93 0 0 0 -.09.76c.12.21.46.18.73.1a4.6 4.6 0 0 0 2.22-1.53zm-6.16 15.45a23.64 23.64 0 0 0 -6.69 4.25 28 28 0 0 0 -5.48 8h4.81a27 27 0 0 1 3.28-7.18 29.49 29.49 0 0 1 4.08-5.07zm2.29-18.24a14 14 0 0 0 1.84-4.31c.15-.8.06-1.69-.62-1.87a2.44 2.44 0 0 0 -2.14.87 19.54 19.54 0 0 0 -2.46 3.07 15.68 15.68 0 0 0 -1.49 2.71 13 13 0 0 0 -1 3.34 1 1 0 0 0 1.41 1 12.73 12.73 0 0 0 4.46-4.81zm18.37.63a3.44 3.44 0 0 0 .83.38c.25-1 .51-2.13.66-2.59a11.92 11.92 0 0 1 1-2.28 14.62 14.62 0 0 1 2.93-3.61 10.06 10.06 0 0 0 -4.5 3.15c-.47.56-1.31 1.59-1.71 2.14a1.86 1.86 0 0 1 .54.29 1.07 1.07 0 0 1 .1 1.18 2.38 2.38 0 0 1 -.84 1 8.34 8.34 0 0 1 .99.39zm26.05 26.61c-1.25.51-2.65 2.78-3.52 4.76a17.51 17.51 0 0 0 3.33-1.11c1.31-.53 2.23-1.25 2.37-2.32a1.45 1.45 0 0 0 -2.18-1.33zm-30.48 1.29a.94.94 0 0 0 -1.31-1.05 5.68 5.68 0 0 0 -2.06 1.47 14.14 14.14 0 0 0 -1.92 2.72 4.31 4.31 0 0 0 4.25-1.31 3.28 3.28 0 0 0 1.04-1.83zm-4.77-30c1.22-.21 4.43-1.66 5-3.24.25-.72-.34-1.54-1.36-1.11a7.89 7.89 0 0 0 -2.47 1.94zm20.19 5.73c0-.5-.58-.71-1.14-.72a3.8 3.8 0 0 0 -1.42.25 7.21 7.21 0 0 0 -1.73 1 3 3 0 0 0 1.11.34 8 8 0 0 0 1.75.05c.75-.04 1.45-.36 1.43-.94zm-10.44-2.31a9.78 9.78 0 0 0 -3.15-1.12 5.29 5.29 0 0 0 -.42 1.39 2.89 2.89 0 0 0 .08 1.61 1.63 1.63 0 0 0 1.28 1c1.51.18 2.11-2.22 2.21-2.9zm-7.09-1a10.12 10.12 0 0 1 .59 3.36c0 .22.21.24.54-.12a10.14 10.14 0 0 0 2-3.58 5.06 5.06 0 0 0 -3.13.36z"/><path d="m1066.48 39.67c-4.84-2-6.84-7.28-6.11-11.93a14.18 14.18 0 0 1 2.61-6.2 11.88 11.88 0 0 1 6.26-4.31 14.23 14.23 0 0 1 5-.51 6.16 6.16 0 0 1 -.33-2.82 5.59 5.59 0 0 1 .95-2.59 7.16 7.16 0 0 1 4.58-3 10.43 10.43 0 0 1 5.54.31 8.24 8.24 0 0 1 4.53 3.91l-.52.54a6.53 6.53 0 0 0 -1-1.41 8.25 8.25 0 0 0 -3.26-2.27 11.43 11.43 0 0 0 -3.51-.47 6.91 6.91 0 0 0 -4.86 2.07 5.22 5.22 0 0 0 -1.43 4.24 3.86 3.86 0 0 0 .58 1.65 6.76 6.76 0 0 1 5.06 3.36 15.76 15.76 0 0 0 5.72.45 27.49 27.49 0 0 1 5.07-7.51 16.38 16.38 0 0 1 7.29-4.27c1.29-.32 2.3-.54 3.08 0 .59.45.93 1.62.3 3a11.78 11.78 0 0 1 -3.37 3.88 47.18 47.18 0 0 1 -7.94 4.9c-.62 1.64-1 2.86-1.43 3.88a42.93 42.93 0 0 1 -5.3 9.9 15 15 0 0 1 -7.73 5.67 13.65 13.65 0 0 1 -9.78-.47zm-1.89-18.61a13.05 13.05 0 0 0 -3.13 6.22 10.31 10.31 0 0 0 0 4.62 9.62 9.62 0 0 0 1.54 3.74 9.82 9.82 0 0 0 4.21 3.2 7.56 7.56 0 0 0 3.65.43c3.55-.26 5.55-2.38 7.12-4a31.12 31.12 0 0 0 4.91-7.05c.85-1.56 2.34-5.08 2.92-6.51a17.62 17.62 0 0 1 -4.83-.22 13.37 13.37 0 0 1 0 3.67 10.52 10.52 0 0 1 -2.36 5.08 25.39 25.39 0 0 1 -5.16 4.38l-.38-.6a27.33 27.33 0 0 0 4.6-4.1 9.33 9.33 0 0 0 2.43-5.17 11.09 11.09 0 0 0 -.09-3.52c-2.64-.88-4.32-1.9-5.43-3.62a11.86 11.86 0 0 0 -5.05.43 12 12 0 0 0 -4.95 3.02zm33.09-5.6a13.4 13.4 0 0 0 2.9-2.6 3.69 3.69 0 0 0 .91-2.84 1.06 1.06 0 0 0 -1.41-.67 9.6 9.6 0 0 0 -3.26 2.05 23.44 23.44 0 0 0 -2.94 3 19.44 19.44 0 0 0 -2.82 5 47.73 47.73 0 0 0 6.62-3.94zm-21.31 2.54a2.4 2.4 0 0 0 .28.34 11.14 11.14 0 0 0 1.77 1.08 2.86 2.86 0 0 0 .55.26 2.94 2.94 0 0 0 -.41-.47 5.09 5.09 0 0 0 -1.69-1.06 2.94 2.94 0 0 0 -.5-.15z"/><path d="m1135.72 30.88a4.41 4.41 0 0 0 -4.58-.14 10.4 10.4 0 0 0 -3.63 3.06 31.05 31.05 0 0 0 -3.25 5.21h-1.86l-.39.75h1.88l-4.19 8.77a2.43 2.43 0 0 1 -2.73 1.07c-.68-.24-.74-1.16-.34-2l4-8.56h-2.21l-4.06 8.51a2.4 2.4 0 0 0 .08 2.48c.79 1.24 2.76 1 4.08.36a4.92 4.92 0 0 1 -2.51 2.45 4.08 4.08 0 0 1 -2.52.21c-1.55-.32-2.77-2.32-3.14-3.4l-.77.12c.35 1.25 1.58 3.45 3.61 4a6.56 6.56 0 0 0 3.14.06 7.23 7.23 0 0 0 5.14-3.64l5-10.44h4.38l-3.85 8.42c-.45 1-.16 1.8.64 2.07 2.06.74 4-.29 4.84-.71l-.51 1h3.16l4.66-10a4.77 4.77 0 0 1 3.37-.91c.85.23 1 1.24.26 2.25-.93 1.28-3 3-4 4.65a4.58 4.58 0 0 0 -.59 4.35 3 3 0 0 0 4 1.35 6.07 6.07 0 0 0 3.2-3.19l-.76-.46a5 5 0 0 1 -2.92 2.87 1.58 1.58 0 0 1 -2-.68 2.3 2.3 0 0 1 .1-2c.88-2 5.22-4.18 5.4-7.26a2.5 2.5 0 0 0 -2.59-2.66 6.19 6.19 0 0 0 -3 .61l4.18-8.89h-2.86l-7.92 16.44a3.85 3.85 0 0 1 -3 2.13c-.79 0-1.31-.35-1-1l3.94-8.42h2.17l.34-.74h-2.11l1.72-3.9h-2.72l-1.7 3.93h-4.47a30.22 30.22 0 0 1 2.14-3.82c1.83-2.54 3.71-4.11 5.29-3.91.87.13 1.06 1.12.72 2.26h2.13a3.78 3.78 0 0 0 -1.39-2.65z"/><path d="m1118.69 37.25a.88.88 0 0 0 .34 1 2 2 0 0 0 2.08-.35 1 1 0 0 0 -.63-1.91 1.72 1.72 0 0 0 -1.79 1.26z"/></g></svg>